<?xml version="1.0" encoding="UTF-8"?> <svg xmlns="http://www.w3.org/2000/svg" width="158.374" height="38.353" viewBox="0 0 158.374 38.353"><g id="avera-health-logo-vector" transform="translate(-21.892 -248.3)"><path id="Path_3751" data-name="Path 3751" d="M51.985,288.794c-6.071.053-7.681.95-7.734-.924-.053-1.61,1.874-.713,2.824-1.531.528-.5.185-1.584.106-1.874l-2.349-6.045c-.158-.4-.185-.739-.528-.924a1.271,1.271,0,0,0-.871-.211H32.69c-.422,0-.37.053-.528.317-.264.422-3.3,6.546-1.478,8.077a2.98,2.98,0,0,0,2.085.818c.818.053,1.637.185,1.637,1.267-.053,2.032-2.745,1-6.678,1.082-1.953,0-5.939.95-5.833-.977.106-1.584.449-.845,2.587-1.795,1.557-.686,3.484-7.443,5.2-11.614,3.352-7.919,5.015-12.7,8.552-20.588a2.37,2.37,0,0,1,2.191-1.373,2.345,2.345,0,0,1,2.112,1.029l12.749,31.542a2.19,2.19,0,0,0,1.056,1.32c1.188.792,2.56-.106,2.534,1.557-.106,1.953-2.64.792-6.889.845m-9.476-15.916-4.17-10.664L33.9,272.666a1.149,1.149,0,0,0,0,.792.5.5,0,0,0,.528.343l7.5-.026c.238,0,.528-.053.633-.238a1.118,1.118,0,0,0-.053-.66" transform="translate(0 -3.091)"></path><path id="Path_3752" data-name="Path 3752" d="M157.543,307.484c-.607.158-.9.713-1.161,1.293l-8.42,17.87c-.238.449-.686,1.478-1.795,1.478-1.373,0-1.531-.818-1.874-1.663l-7.919-17.5a2.879,2.879,0,0,0-1.531-1.663c-.765-.422-1.9.079-1.848-1.161.053-1.452,1.557-1,6.493-.792,3.035.106,3.458-.238,4.065.053.633.317.053.924.317,1.663a11.337,11.337,0,0,1,.449,1.742l3.616,8.922c.079.158.211.37.4.37.238,0,.29-.211.4-.4l3.7-8.658a10.841,10.841,0,0,0,.554-1.716,9.737,9.737,0,0,0,.238-1.531c.079-.739,1.848-.475,2.455-.475,5.253-.132,4.7-.317,4.7.924.026,1.267-1.373.871-2.824,1.241" transform="translate(-81.776 -41.816)"></path><path id="Path_3753" data-name="Path 3753" d="M248.917,315.005a2,2,0,0,1-1.241.264H234.585l-.053.343a7.659,7.659,0,0,0,3.669,6.995,7.754,7.754,0,0,0,8.71.079c.792-.449,1.478-1.663,2.323-.607,1.161,1.32-4.7,5.332-10,5.385-5.305.079-11.878-4.091-12.036-11.376C227.062,309.3,233,304.5,239.811,304.5c4.646,0,9.08,2.613,9.872,6.995.132.792-.079,3.088-.765,3.511m-9.054-8.183c-3.458.29-5.015,3.722-5.173,5.49v.053h6.678c1.214,0,1.927-1.373,1.98-2.64a3.151,3.151,0,0,0-3.484-2.9" transform="translate(-151.11 -41.366)"></path><path id="Path_3754" data-name="Path 3754" d="M329.543,310.063c-1.557-.713-1.927-2.9-3.722-2.481-.554.132-1.32,1.5-1.32,2.613v11.693c0,.581-.079,1.029.686,1.373.792.29,2.3-.158,2.376,1.452,0,.66-.475.792-1.135.792,0,.053-.317-.079-5.86-.079-6.335.026-5.279.158-5.332.132a1.081,1.081,0,0,1-1.056-1.082c.37-1.161,1.188-.528,2.455-1.188a1.591,1.591,0,0,0,.792-1.557V306.949a2.024,2.024,0,0,0-.37-1.161c-.792-1.188-2.508-.053-2.508-1.373-.053-1.478.5-.66,4.118-1.241,4.8-.739,3.748-.607,5.068-1.029.4-.132.686.422.686.818l-.053,2.428c0,.818,2.666-2.719,6.916-2.64a3.8,3.8,0,0,1,3.7,3.484c.238,3.484-3.273,4.725-5.437,3.827" transform="translate(-215.133 -39.618)"></path><path id="Path_3755" data-name="Path 3755" d="M408.206,326.532c-1.082-.5-1.716-2.112-1.953-2.56-.132-.132-.132-.37-.29-.422-.238-.079-.475.343-.528.37-.686.422-4.144,3.748-8.922,3.722-3.3-.079-4.566-2.56-4.619-5.042-.132-5.279,5.253-7.734,9.423-9.291,1.848-.66,4.25-1.848,4.408-1.927v-3.035a1.683,1.683,0,0,0-2.244-1.689,4.118,4.118,0,0,0-3.458,2.956c-.792,2.4-4.857,2.851-5.6,2.8-.686,0-1.452-.4-1.346-1.161.29-3.643,6.335-7.285,11.508-7.074,3.3.132,7.311.739,7.839,3.3a5.964,5.964,0,0,1,.026.713v12.67c0,1,.053,1.9.9,2.4,1.267.739,2.376-2.244,3.115-.713.686,1.478-4.3,5.965-8.262,3.986M405.7,316.08c0-.37.053-1.135-.238-1.293a.732.732,0,0,0-.765.079l-2.851,1.689c-1.452.871-2.851,2.349-2.9,3.616a2.358,2.358,0,0,0,2.772,2.64c1.716-.079,3.986-1.768,3.986-3.4Z" transform="translate(-272.337 -41.121)"></path><rect id="Rectangle_1830" data-name="Rectangle 1830" width="30.909" height="38.352" transform="translate(149.357 248.3)" fill="#fff"></rect><path id="Path_3756" data-name="Path 3756" d="M507.9,251.3h9.027l.871,9.925-9.9-.792Z" transform="translate(-357.725 -2.208)"></path><path id="Path_3757" data-name="Path 3757" d="M582.3,251.3h8.869v9.133l-9.766.713Z" transform="translate(-411.824 -2.208)"></path><path id="Path_3758" data-name="Path 3758" d="M533.947,288.01a3.48,3.48,0,0,1,.053-.871,16.564,16.564,0,0,0,.475-3.3,33.725,33.725,0,0,0-.581-4.962,5.541,5.541,0,0,1,.5-3.247c.185-.211.079-.317-.079-.4a3.31,3.31,0,0,0-1.768.607c-.792.475-1.109,1.848-1.188,3.035a20.306,20.306,0,0,0,.4,3.379c0,.317.026.238-.158.238s-.211-.37-.475-1a7.049,7.049,0,0,0-2.032-2.983,17.354,17.354,0,0,1-3.7-4.593,5.374,5.374,0,0,1-.792-1.663l-.264.026,1,8.6s-.026.317.686.607a9.777,9.777,0,0,1,2.27,1.663,6.708,6.708,0,0,1,1.768,3.141,5.918,5.918,0,0,1,.29,1.663h-15.52a5.712,5.712,0,0,1,.264-1.663,6.614,6.614,0,0,1,1.768-3.141,9.777,9.777,0,0,1,2.27-1.663c.713-.317.686-.607.686-.607l1-8.6-.264-.026a5.375,5.375,0,0,1-.792,1.663,18.422,18.422,0,0,1-3.7,4.593,6.932,6.932,0,0,0-2.059,2.983c-.264.607-.317,1-.5,1-.158,0-.132.053-.132-.238a21.105,21.105,0,0,0,.4-3.379c-.079-1.188-.4-2.56-1.188-3.035a3.079,3.079,0,0,0-1.768-.607c-.185.079-.264.185-.079.4a5.486,5.486,0,0,1,.5,3.247,37.928,37.928,0,0,0-.607,4.962,16.167,16.167,0,0,0,.5,3.3,3.538,3.538,0,0,1,.053.871H508V271.751l12.987-1.531.264-3.062L508,268.742v-5.279l13.25,1.109L520.036,251.4h5.121l-1.109,13.171,13.118-1.109v5.279l-13.118-1.584.211,3.088,12.907,1.5V288.01Z" transform="translate(-357.798 -2.282)"></path></g></svg> 