<?xml version="1.0" encoding="UTF-8"?> <svg xmlns="http://www.w3.org/2000/svg" id="a" width="8.17in" height="1.46in" viewBox="0 0 588.51 105"><path d="M176.97,44.24h-1.58c-1.34-8.59-8.59-11.8-15.77-11.8-7.95,0-15.66,6.25-15.66,17.88s6.49,21.5,16.83,21.5c4.5,0,11.51-2.63,16.65-10.75l.53,7.07c-6.31,4.56-12.68,6.19-19.1,6.19-20.68,0-23.78-16.01-23.78-22.55,0-9.7,6.89-21.62,25.47-21.62,3.8,0,10.69,1.05,16.42,3.33v10.75h0Z"></path><path d="M203.09,30.22c12.91,0,24.36,9.06,24.36,22.08,0,11.63-8.94,22.08-23.55,22.08-12.91,0-24.36-9.06-24.36-22.08,0-11.63,8.88-22.08,23.55-22.08Zm2.34,41.83c3.8,0,13.15-2.34,13.15-17.18,0-11.63-6.6-22.44-17.06-22.44-3.8,0-13.15,2.34-13.15,17.18,0,11.63,6.6,22.44,17.06,22.44Z"></path><path d="M225.99,71.76c3.91-.06,4.97-1.52,4.97-4.85v-29.27c0-3.33-1.05-4.79-4.97-4.85v-1.81c2.45,.06,4.79,.18,6.49,.18,1.29,0,3.04-.12,4.79-.18l28.16,31.55-.18-24.6c0-3.62-.82-5.14-5.14-5.14v-1.81c2.22,.06,4.62,.18,6.49,.18s4.32-.12,6.66-.18v1.81c-3.91,.06-4.97,1.52-4.97,4.85v36.4h-2.45l-32.37-35.7,.47,28.1c.06,4.44,1.17,5.02,4.97,5.38v1.81c-1.81-.12-5.02-.18-6.49-.18s-4.67,.06-6.49,.18v-1.87h.06Z"></path><path d="M275.18,71.76c3.86-.06,4.97-1.52,4.97-4.85v-29.27c0-3.33-1.05-4.79-4.97-4.85v-1.81c2.04,.06,4.97,.18,8,.18,9.17,0,16.53-.12,22.08-.18l.23,10.05h-1.93c-.93-5.73-3.51-7.77-10.69-7.77h-5.2v17.29h4.62c5.43,0,6.25-1.99,6.66-5.73h2.04c-.06,2.34-.12,4.56-.12,6.49,0,2.8,.06,5.08,.12,7.48h-2.04c0-4.73-1.52-5.9-6.72-5.9h-4.56v14.26c0,2.75,1.11,4.27,6.78,4.27,6.08,0,10.34-1.17,11.8-8.71h2.04c-.35,2.86-.88,7.89-.88,10.93-5.78-.06-13.38-.18-22.79-.18-4.62,0-8.18,.12-9.41,.18v-1.87h-.06Z"></path><path d="M328.35,71.76c3.91-.06,4.97-1.52,4.97-4.85v-29.27c0-3.33-1.05-4.79-4.97-4.85v-1.81c4.79,.12,6.84,.18,8.71,.18s3.97-.06,8.76-.18v1.81c-3.91,.06-4.97,1.52-4.97,4.85v12.04h22.44v-12.04c0-3.33-1.05-4.79-4.97-4.85v-1.81c4.79,.12,6.84,.18,8.76,.18s3.91-.06,8.71-.18v1.81c-3.91,.06-4.97,1.52-4.97,4.85v29.33c0,3.33,1.05,4.79,4.97,4.85v1.81c-4.79-.12-6.84-.18-8.71-.18s-3.97,.06-8.76,.18v-1.81c3.91-.06,4.97-1.52,4.97-4.85v-14.78h-22.44v14.72c0,3.33,1.05,4.79,4.97,4.85v1.81c-4.79-.12-6.84-.18-8.76-.18s-3.97,.06-8.71,.18v-1.81Z"></path><path d="M378.94,71.76c3.91-.06,4.97-1.52,4.97-4.85v-29.27c0-3.33-1.05-4.79-4.97-4.85v-1.81c2.04,.06,4.97,.18,8,.18,9.17,0,16.53-.12,22.08-.18l.23,10.05h-1.93c-.93-5.73-3.51-7.77-10.69-7.77h-5.2v17.29h4.62c5.43,0,6.19-1.99,6.66-5.73h2.04c-.06,2.34-.12,4.56-.12,6.49,0,2.8,.06,5.08,.12,7.48h-2.04c0-4.73-1.52-5.9-6.72-5.9h-4.56v14.26c0,2.75,1.17,4.27,6.78,4.27,6.08,0,10.34-1.17,11.8-8.71h2.04c-.35,2.75-.88,7.48-.88,10.57,0,.12-.18,.29-.18,.41h-.53c-5.73-.06-13.09-.18-22.08-.18-4.62,0-8.18,.12-9.41,.18v-1.93h-.06Z"></path><path d="M410.9,71.76c4.15-.23,5.26-.82,8.53-8.88l13.15-31.78h.99l16.18,36.17c1.58,3.45,2.98,4.44,6.08,4.44v1.64c-.06,0-.93,.12-1.11,.12-3.62-.06-5.78-.18-8-.18-2.4,0-4.97,.12-9.17,.18v-1.81c3.33,0,4.32-.58,4.32-2.22,0-.64-.41-1.93-1.69-4.91l-2.4-5.61h-13.67l-1.75,4.85c-1.52,4.21-1.64,5.02-1.64,5.61,0,1.58,.7,2.22,4.44,2.28v1.81c-5.14-.18-5.73-.18-7.19-.18s-2.1,0-7.19,.18v-1.69h.12Zm26.06-15.02l-6.49-15.37-5.49,15.37s11.98,0,11.98,0Z"></path><path d="M453.85,73.39v-1.58c3.86-.06,4.97-1.52,4.97-4.85v-29.33c0-3.33-1.05-4.79-4.97-4.85v-1.81c4.79,.12,6.84,.18,8.71,.18s3.97-.06,8.76-.18v1.81c-3.91,.06-4.97,1.52-4.97,4.85v29.33c0,3.1,1.75,4.15,6.72,4.15,7.89,0,11.86-.99,13.03-8.41h2.04l-.93,10.93c-14.72-.35-31.26-.12-32.31,0-.18-.06-1.05-.23-1.05-.23Z"></path><path d="M492.93,71.76c3.91-.06,4.97-1.52,4.97-4.85V33.96h-5.26c-4.79,0-7.95,1.34-8.3,8.88h-2.22l.35-11.86c6.43,.06,12.8,.12,19.22,.18,6.43,.06,12.8-.12,19.22-.18l.35,11.86h-2.22c-.35-7.54-3.51-8.88-8.3-8.88h-5.26v32.95c0,3.33,1.05,4.79,4.97,4.85v1.81c-4.79-.12-6.84-.18-8.76-.18s-3.97,.06-8.71,.18v-1.81h-.06Z"></path><path d="M523.78,71.76c3.86-.06,4.97-1.52,4.97-4.85v-29.27c0-3.33-1.05-4.79-4.97-4.85v-1.81c4.79,.12,6.84,.18,8.76,.18s3.97-.06,8.76-.18v1.81c-3.91,.06-4.97,1.52-4.97,4.85v12.04h22.44v-12.04c0-3.33-1.05-4.79-4.97-4.85v-1.81c4.79,.12,6.84,.18,8.76,.18s3.97-.06,8.71-.18v1.81c-3.91,.06-4.97,1.52-4.97,4.85v29.33c0,3.33,1.05,4.79,4.97,4.85v1.81c-4.79-.12-6.84-.18-8.71-.18s-3.97,.06-8.76,.18v-1.81c3.91-.06,4.97-1.52,4.97-4.85v-14.78h-22.44v14.72c0,3.33,1.05,4.79,4.97,4.85v1.81c-4.79-.12-6.84-.18-8.76-.18s-3.97,.06-8.76,.18v-1.81Z"></path><g><path d="M10.93,38.34C1.99,32.44,1.99,22.27,1.99,22.27L1.4,3.46h0c1.64,6.08,47.85,28.8,47.85,28.8,4.27,2.16,11.39,8.94,11.57,19.4l.29,16.65c-1.23-3.39-3.33-5.78-9.82-9.11,0-.06-30.79-14.43-40.37-20.86Z"></path><path d="M61.11,104.47c.12-10.11,.12-8.65-.29-13.55-.47-6.02-4.15-12.85-15.19-17.64,0,0-44.11-18.99-45.63-26.99l1.17,9.29s4.44,45.81,60,49.25l-.06-.35Z"></path><path d="M63.57,105c54.98-3.62,60.7-41.07,61.4-50.77-2.51,7.3-50.77,27.93-50.77,27.93-9.82,4.67-10.63,12.39-10.63,22.84h0Z"></path><path d="M63.98,33.43c8.18,0,14.78-5.14,14.78-11.57s-6.66-11.57-14.78-11.57-14.78,5.14-14.78,11.57c-.06,6.43,6.6,11.57,14.78,11.57Z"></path><path d="M64.44,77.77c2.22-4.32,4.62-5.02,9.11-7.3,0,0,27.05-12.09,36.87-17.64,13.55-7.65,15.42-15.19,6.84-26.88C102.94,6.5,64.27-12.26,23.43,10.29v3.45c47.09-23.43,77.18,6.84,82.32,14.02,2.45,3.33-.53,4.73-.53,4.73-7.71,4.56-27.69,13.61-27.69,13.61-8.65,3.56-11.51,8.41-12.33,15.77l-.76,15.89"></path></g><path d="M582.32,61.12c3.45,0,6.19,2.8,6.19,6.19s-2.8,6.19-6.19,6.19-6.19-2.8-6.19-6.19c0-3.39,2.8-6.19,6.19-6.19m.06,11.51c2.86,0,5.02-2.28,5.02-5.26s-2.16-5.26-5.02-5.26-5.02,2.34-5.02,5.26c-.06,2.98,2.1,5.26,5.02,5.26Zm-1.99-8.41h2.4c1.4,0,2.1,.58,2.1,1.75,0,.99-.64,1.69-1.58,1.69l1.75,2.75h-1.05l-1.75-2.75h-.82v2.75h-.99v-6.19h-.06Zm.99,2.69h1.17c.76,0,1.29-.18,1.29-.93,0-.7-.64-.93-1.29-.93h-1.17v1.87Z"></path></svg> 