<?xml version="1.0" encoding="UTF-8"?> <svg xmlns="http://www.w3.org/2000/svg" id="a" width="159.95" height="26.58" viewBox="0 0 159.95 26.58"><path d="M109.92,26.5c-.32,0-.33,0-.67,.02l-.03-.05c.02-.67,.03-1.38,.03-2h-1.94c0,1.13,0,1.53,.05,1.97l-.03,.05c-.33,0-.35,0-.67,.02l-.03-.05c.02-.59,.03-.89,.03-2.69,0-.8-.02-1.08-.03-1.45l.03-.05c.3,0,.37,0,.65-.02l.03,.05c0,.35-.02,.84-.02,1.65h.86c.54,0,.8,0,1.08-.02,0-1.13,0-1.26-.05-1.62l.03-.05c.32,0,.37,0,.67-.02l.03,.05c-.02,.57-.03,.95-.03,1.99,0,1.16,.03,1.59,.06,2.15l-.03,.05h-.03v.02Z" fill="#231f20"></path><path d="M115.6,26.01c-.02,.21-.02,.24-.03,.45l-.05,.05c-1.16,0-1.35,0-2.48,.02l-.03-.05c.02-.48,.03-.8,.03-1.88,0-1,0-1.57-.05-2.26l.03-.05c1.18,0,1.4,0,2.5-.02l.03,.05c-.02,.17-.03,.25-.05,.46l-.03,.05c-.76-.02-1.02-.02-1.78-.03-.02,.54-.02,.72-.02,1.27h1.69l.03,.05c-.02,.21-.02,.27-.03,.46l-.03,.05c-.68-.02-.84-.02-1.65-.02v1.42c.89,0,1.08,0,1.85-.03l.03,.05s.05-.03,.05-.03Z" fill="#231f20"></path><path d="M119.07,24.74h1.19l-.57-2-.62,2Zm1.18-2.32c.19,.65,.41,1.4,.6,1.96,.19,.57,.48,1.5,.67,2.07v.05c-.33,0-.46,0-.72,.03l-.05-.05c-.14-.56-.19-.72-.35-1.26h-1.48c-.17,.56-.21,.7-.35,1.22l-.05,.05c-.25,0-.32,0-.62,.02v-.05s.02-.13,.05-.19c.22-.64,.45-1.29,.67-1.92,.35-1.05,.49-1.45,.67-2l.05-.05c.41,0,.48,0,.84-.02l.05,.05,.03,.11h0l-.02-.02Z" fill="#231f20"></path><path d="M126.39,26.01c-.02,.19-.02,.29-.03,.46l-.03,.05c-1.07,0-1.15,0-2.27,.02l-.03-.05c0-.48,.03-1.19,.03-2.24,0-.92-.02-1.42-.05-1.89l.05-.05c.32,0,.38,0,.68-.02l.03,.03c-.06,1.11-.06,2.55-.06,2.69v.99c.67,0,.84,0,1.64-.03l.03,.05s.02,0,.02,0Z" fill="#231f20"></path><path d="M130.83,22.81h-1.1v1.22c0,1.5,.02,2.08,.05,2.45l-.03,.05c-.33,0-.35,0-.68,.02l-.03-.05c.03-.83,.03-1.67,.03-2.5,0-.6,0-.92-.02-1.18-.52,0-.57,0-1.11,.03l-.03-.05c0-.21,0-.24,.02-.45l.03-.05h2.91l.03,.05c-.02,.21-.02,.27-.02,.45l-.03,.05v-.05h-.02Z" fill="#231f20"></path><path d="M136.73,26.5c-.32,0-.33,0-.67,.02l-.03-.05c.02-.67,.03-1.38,.03-2h-1.94c0,1.13,0,1.53,.05,1.97l-.03,.05c-.33,0-.35,0-.67,.02l-.03-.05c.02-.59,.03-.89,.03-2.69,0-.8-.02-1.08-.03-1.45l.03-.05c.3,0,.38,0,.67-.02l.03,.05c0,.35-.02,.84-.02,1.65h.86c.54,0,.8,0,1.08-.02,0-1.13,0-1.26-.05-1.62l.03-.05c.32,0,.37,0,.67-.02l.03,.05c-.02,.57-.03,.95-.03,1.99,0,1.16,.03,1.59,.06,2.15l-.03,.05h-.05v.02Z" fill="#231f20"></path><path d="M142.84,25.69c-.03,.29-.03,.37-.05,.59l-.03,.05c-.14,.08-.52,.25-1.13,.25-1.3,0-2.07-.86-2.07-2.2,0-.29,.02-1.02,.54-1.57,.51-.56,1.15-.62,1.57-.62,.54,0,.89,.13,1.08,.19v.05c0,.21,0,.27-.03,.52l-.05,.03c-.13-.08-.43-.27-.95-.27-.95,0-1.46,.65-1.46,1.65,0,1.13,.62,1.65,1.43,1.65,.56,0,.91-.24,1.1-.37h.05s0,.03,0,.03Z" fill="#231f20"></path><path d="M146.35,24.74h1.19l-.57-2-.62,2Zm1.18-2.32c.19,.65,.43,1.4,.6,1.96,.19,.57,.48,1.5,.67,2.07v.05c-.33,0-.46,0-.72,.03l-.05-.05c-.14-.56-.19-.72-.35-1.26h-1.5c-.17,.56-.21,.7-.35,1.22l-.05,.05c-.25,0-.32,0-.62,.02v-.05s.02-.13,.05-.19c.22-.64,.45-1.29,.67-1.92,.35-1.05,.49-1.45,.67-2l.05-.05c.41,0,.46,0,.84-.02l.05,.05,.03,.11h0v-.02Z" fill="#231f20"></path><path d="M153.24,23.99c.14-.13,.22-.32,.22-.49,0-.13-.03-.27-.11-.41-.19-.29-.51-.3-.95-.3h-.38v1.45c.45,0,.95,.02,1.24-.24m-1.21,2.51c-.33,0-.35,0-.65,.02l-.03-.05c.02-.57,.02-1.16,.02-1.73,0-1.34-.02-1.8-.06-2.4l.03-.05h1.11c.33,0,.64,0,.94,.1,.46,.16,.75,.48,.75,1.05,0,.48-.25,.95-1.02,1.16,.1,.14,.56,.81,.67,.97,.19,.25,.27,.38,.64,.87v.06h-.38c-.13,0-.25,0-.38,.02l-.05-.03s-.05-.08-.08-.13c-.17-.3-.37-.59-.56-.87-.35-.54-.4-.6-.54-.8h-.43c0,.33,0,1.24,.05,1.75l-.03,.05h0l.02,.02Z" fill="#231f20"></path><path d="M159.68,26.01c-.02,.21-.02,.24-.03,.45l-.05,.05c-1.16,0-1.35,0-2.48,.02l-.03-.05c.02-.48,.03-.8,.03-1.88,0-1,0-1.57-.05-2.26l.03-.05c1.18,0,1.4,0,2.5-.02l.03,.05c-.02,.17-.03,.25-.05,.46l-.03,.05c-.76-.02-1.02-.02-1.78-.03-.02,.54-.02,.72-.02,1.27h1.69l.03,.05c-.03,.21-.03,.27-.03,.46l-.03,.05c-.68-.02-.84-.02-1.65-.02v1.42c.89,0,1.08,0,1.85-.03l.03,.05s.05-.03,.05-.03Z" fill="#231f20"></path><path d="M4.08,14.51c0,1.19,.08,1.91,.48,2.45,.52,.7,1.45,.92,2.96,.92,4.66,0,6.76-2.85,6.76-7.03,0-2.48-1.27-6.65-7.57-6.65-1.42,0-2.2,.17-2.39,.32-.19,.14-.24,.7-.24,1.7V14.52h0v-.02ZM2.11,6.49c0-1.57-.13-2.05-1.13-2.18l-.52-.06c-.19-.11-.22-.48,0-.56,2.05-.11,3.99-.17,6.04-.17s3.72,.14,5.3,.67c3.25,1.1,4.88,3.66,4.88,6.63s-1.46,5.31-4.22,6.7c-1.56,.78-3.53,1.08-5.39,1.08-1.54,0-3.09-.17-3.93-.17-1,0-1.88,.02-3.01,.06-.14-.06-.19-.43-.05-.56l.56-.06c1.4-.17,1.45-.45,1.45-2.82V6.49h.02Z" fill="#231f20"></path><path d="M19.86,9.23c0-1.88-.03-2.15-1.18-2.26l-.3-.03c-.11-.08-.08-.4,.03-.45,.83,.03,1.48,.05,2.27,.05h3.63c1.22,0,2.37,0,2.59-.05,.11,.3,.24,1.61,.3,2.39-.08,.11-.38,.14-.48,.03-.29-.84-.46-1.48-1.46-1.7-.4-.1-1.02-.11-1.86-.11h-1.38c-.57,0-.57,.03-.57,.72v3.59c0,.51,.06,.51,.64,.51h1.11c.81,0,1.4-.03,1.64-.11,.22-.08,.37-.17,.46-.64l.16-.73c.1-.11,.43-.11,.49,.02,0,.43-.08,1.13-.08,1.81s.08,1.34,.08,1.73c-.08,.13-.41,.13-.49,.02l-.17-.7c-.08-.32-.21-.59-.6-.68-.27-.08-.73-.1-1.48-.1h-1.11c-.57,0-.64,.02-.64,.49v2.53c0,.95,.06,1.56,.37,1.88,.24,.21,.64,.41,2.32,.41,1.48,0,2.04-.08,2.47-.27,.35-.17,.87-.81,1.37-1.75,.13-.1,.4-.03,.48,.13-.14,.64-.62,2.02-.87,2.5-1.73-.03-3.45-.05-5.15-.05h-1.73c-.83,0-1.48,.02-2.61,.05-.11-.05-.16-.35-.05-.45l.64-.05c1.1-.1,1.19-.37,1.19-2.24,0,0,0-6.49,0-6.49Z" fill="#231f20"></path><path d="M33.52,18.69c-1.62,0-2.64-.46-3.01-.67-.24-.4-.48-1.67-.52-2.51,.1-.13,.38-.16,.46-.05,.29,.92,1.08,2.67,3.31,2.67,1.62,0,2.4-.99,2.4-2.07,0-.8-.17-1.67-1.57-2.51l-1.83-1.11c-.97-.59-2.08-1.62-2.08-3.1,0-1.7,1.43-3.09,3.93-3.09,.6,0,1.29,.11,1.78,.24,.25,.08,.52,.11,.67,.11,.17,.43,.35,1.45,.35,2.2-.08,.11-.38,.16-.48,.05-.25-.86-.76-2.04-2.62-2.04s-2.29,1.16-2.29,2c0,1.03,.92,1.8,1.64,2.21l1.54,.91c1.21,.7,2.4,1.75,2.4,3.45,0,1.97-1.59,3.32-4.1,3.32" fill="#231f20"></path><path d="M41.33,9.23c0-1.88-.03-2.15-1.18-2.26l-.3-.03c-.11-.08-.08-.4,.03-.45,.83,.03,1.48,.05,2.27,.05h3.63c1.22,0,2.37,0,2.59-.05,.11,.3,.24,1.61,.3,2.39-.08,.11-.38,.14-.48,.03-.29-.84-.46-1.48-1.46-1.7-.4-.1-1.02-.11-1.86-.11h-1.38c-.57,0-.57,.03-.57,.72v3.59c0,.51,.06,.51,.64,.51h1.11c.81,0,1.4-.03,1.64-.11,.22-.08,.37-.17,.46-.64l.16-.73c.1-.11,.43-.11,.49,.02,0,.43-.08,1.13-.08,1.81s.08,1.34,.08,1.73c-.08,.13-.4,.13-.49,.02l-.17-.7c-.08-.32-.21-.59-.6-.68-.27-.08-.73-.1-1.48-.1h-1.11c-.57,0-.64,.02-.64,.49v2.53c0,.95,.06,1.56,.37,1.88,.24,.21,.64,.41,2.32,.41,1.48,0,2.04-.08,2.47-.27,.35-.17,.87-.81,1.37-1.75,.13-.1,.4-.03,.48,.13-.14,.64-.62,2.02-.87,2.5-1.73-.03-3.45-.05-5.15-.05h-1.73c-.83,0-1.48,.02-2.61,.05-.11-.05-.16-.35-.05-.45l.64-.05c1.1-.1,1.19-.37,1.19-2.24v-6.49Z" fill="#231f20"></path><path d="M54.9,11.82c0,.32,0,.52,.06,.59,.06,.05,.35,.1,1.32,.1,.7,0,1.43-.08,1.99-.46,.52-.38,.95-1,.95-2.23,0-1.42-.94-2.77-3.09-2.77-1.19,0-1.26,.08-1.26,.57v4.22h0l.02-.02Zm-1.57-2.59c0-1.7-.06-2.02-.84-2.1l-.62-.08c-.13-.1-.13-.38,0-.45,1.08-.1,2.4-.14,4.29-.14,1.19,0,2.32,.1,3.21,.54,.92,.45,1.59,1.26,1.59,2.51,0,1.7-1.45,2.64-2.4,3.01-.1,.11,0,.29,.1,.43,1.54,2.32,2.56,3.75,3.87,4.79,.33,.27,.81,.46,1.32,.51,.1,.03,.11,.17,0,.25-.17,.05-.48,.1-.84,.1-1.64,0-2.62-.45-3.99-2.27-.51-.67-1.29-1.91-1.89-2.72-.29-.4-.6-.57-1.37-.57-.86,0-.91,.02-.91,.4v2.26c0,1.89,.03,2.1,1.16,2.24l.41,.05c.11,.1,.08,.4-.05,.45-.86-.03-1.53-.05-2.29-.05-.81,0-1.5,.02-2.4,.05-.11-.05-.16-.32-.03-.45l.48-.05c1.11-.13,1.16-.37,1.16-2.24v-6.44h0l.05-.02Z" fill="#231f20"></path><path d="M70.06,15.7c0,1.89,.03,2.16,1.16,2.24l.62,.05c.11,.08,.08,.4-.05,.45-1.1-.03-1.75-.05-2.51-.05s-1.45,.02-2.67,.05c-.11-.05-.16-.37,0-.45l.7-.05c1.1-.1,1.19-.37,1.19-2.24V7.67c0-.56,0-.57-.57-.57h-1.05c-.83,0-1.89,.03-2.37,.45-.46,.4-.65,.8-.86,1.24-.16,.11-.43,.02-.49-.13,.3-.81,.6-1.96,.73-2.69,.06-.03,.3-.05,.37,0,.11,.57,.75,.56,1.64,.56h7.79c1.03,0,1.21-.03,1.5-.51,.1-.03,.3,0,.35,.05-.21,.73-.35,2.2-.29,2.74-.08,.14-.4,.14-.49,.03-.06-.45-.19-1.11-.48-1.3-.45-.3-1.18-.45-2.23-.45h-1.37c-.57,0-.56,.02-.56,.62V15.7h-.06Z" fill="#231f20"></path><path d="M119.13,11.61c0-3.71-1.75-7.71-6.35-7.71-2.5,0-5.76,1.59-5.76,6.52,0,3.32,1.73,7.65,6.47,7.65,2.88,0,5.63-2.02,5.63-6.46m-14.51-.48c0-4.5,3.61-7.94,8.56-7.94,5.55,0,8.35,3.75,8.35,7.71,0,4.55-3.71,7.84-8.35,7.84-5.34,0-8.56-3.58-8.56-7.62" fill="#231f20"></path><path d="M125.8,12.63c-.16,.41-.13,.43,.4,.43h2.37c.56,0,.6-.08,.43-.56l-1.03-2.93c-.16-.43-.33-.92-.45-1.13h-.03c-.06,.1-.25,.52-.46,1.07l-1.21,3.13h0l-.02-.02Zm3.82,1.59c-.14-.4-.21-.45-.8-.45h-2.91c-.48,0-.59,.05-.73,.43l-.67,1.89c-.29,.81-.43,1.29-.43,1.5s.1,.32,.56,.37l.64,.05c.13,.1,.13,.38-.03,.45-.51-.03-1.1-.03-2-.05-.64,0-1.32,.03-1.85,.05-.11-.08-.16-.37-.05-.45l.64-.05c.46-.03,.89-.24,1.16-.87,.35-.83,.89-2,1.7-4.01l1.96-4.85c.27-.65,.38-.99,.33-1.27,.46-.13,.8-.45,1-.68,.11,0,.25,.03,.29,.16,.25,.8,.56,1.62,.84,2.42l2.64,7.24c.56,1.54,.81,1.81,1.64,1.91l.52,.05c.13,.1,.1,.38,0,.45-.8-.03-1.46-.05-2.32-.05-.92,0-1.65,.03-2.21,.05-.16-.08-.17-.37-.05-.45l.56-.05c.4-.03,.67-.14,.67-.32,0-.19-.1-.52-.25-.95l-.84-2.45s0-.05,0-.05Z" fill="#231f20"></path><path d="M138.81,18.69c-1.62,0-2.64-.46-3.01-.67-.24-.4-.48-1.67-.52-2.51,.1-.13,.38-.16,.46-.05,.29,.92,1.08,2.67,3.31,2.67,1.62,0,2.4-.99,2.4-2.07,0-.8-.17-1.67-1.57-2.51l-1.83-1.11c-.97-.59-2.08-1.62-2.08-3.1,0-1.7,1.43-3.09,3.93-3.09,.6,0,1.29,.11,1.78,.24,.25,.08,.52,.11,.67,.11,.17,.43,.35,1.45,.35,2.2-.08,.11-.38,.16-.48,.05-.25-.86-.76-2.04-2.62-2.04s-2.29,1.16-2.29,2c0,1.03,.92,1.8,1.64,2.21l1.54,.91c1.21,.7,2.4,1.75,2.4,3.45,0,1.97-1.59,3.32-4.1,3.32" fill="#231f20"></path><path d="M146.96,9.26c0-1.91-.03-2.21-1.18-2.31l-.48-.03c-.11-.08-.08-.4,.03-.45,.95,.03,1.62,.05,2.42,.05s1.43-.02,2.39-.05c.11,.05,.16,.38,.03,.45l-.48,.03c-1.13,.1-1.18,.4-1.18,2.31v6.41c0,1.91,.03,2.16,1.18,2.29l.48,.05c.11,.08,.08,.4-.03,.45-.95-.03-1.62-.05-2.39-.05-.81,0-1.46,.02-2.42,.05-.11-.05-.16-.33-.03-.45l.48-.05c1.15-.13,1.18-.38,1.18-2.29v-6.41Z" fill="#231f20"></path><path d="M155.88,18.69c-1.62,0-2.64-.46-3.01-.67-.24-.4-.48-1.67-.52-2.51,.1-.13,.38-.16,.46-.05,.29,.92,1.08,2.67,3.31,2.67,1.62,0,2.4-.99,2.4-2.07,0-.8-.17-1.67-1.57-2.51l-1.83-1.11c-.97-.59-2.08-1.62-2.08-3.1,0-1.7,1.43-3.09,3.93-3.09,.6,0,1.29,.11,1.78,.24,.25,.08,.52,.11,.67,.11,.17,.43,.35,1.45,.35,2.2-.08,.11-.38,.16-.48,.05-.25-.86-.78-2.04-2.62-2.04s-2.29,1.16-2.29,2c0,1.03,.92,1.8,1.64,2.21l1.54,.91c1.21,.7,2.4,1.75,2.4,3.45,0,1.97-1.59,3.32-4.1,3.32" fill="#231f20"></path><path d="M87.27,0l-.65,6.89s2-3.98,7.97-3.64l.25-3.25h-7.57Z" fill="#231f20"></path><path d="M92.49,22.27l.65-6.89s-2,3.98-7.97,3.64l-.25,3.25h7.57Z" fill="#231f20"></path><path d="M77.87,14.92h9.07s-4.14-1.29-4.36-7.27h-3.56s-1.15,7.27-1.15,7.27Z" fill="#231f20"></path><path d="M101.86,7.7h-9.07s4.14,1.29,4.36,7.27h3.56s1.15-7.27,1.15-7.27Z" fill="#231f20"></path></svg> 