<?xml version="1.0" encoding="UTF-8"?> <svg xmlns="http://www.w3.org/2000/svg" xmlns:xlink="http://www.w3.org/1999/xlink" width="201.444" height="52.722" viewBox="0 0 201.444 52.722"><defs><clipPath id="clip-path"><rect id="Rectangle_1828" data-name="Rectangle 1828" width="201.444" height="52.722"></rect></clipPath></defs><g id="Group_2258" data-name="Group 2258" transform="translate(0 0)"><path id="Path_3719" data-name="Path 3719" d="M0,21.841V42.208H10.469V39.885H2.777V32.822h7.328V30.59H2.777V24.133h7.693V21.841Z" transform="translate(0 2.791)"></path><g id="Group_2205" data-name="Group 2205" transform="translate(0 0)"><g id="Group_2204" data-name="Group 2204" clip-path="url(#clip-path)"><path id="Path_3720" data-name="Path 3720" d="M19.02,41.6H16.214l-5.644-15h3.046l3.169,8.931c.33.965.633,1.9.874,2.838h.061c.24-.875.513-1.841.845-2.746L21.823,26.6H24.75Z" transform="translate(1.351 3.4)"></path><path id="Path_3721" data-name="Path 3721" d="M35.738,34.055H25.932c-.121,3.923,1.539,5.642,4.737,5.642a10.5,10.5,0,0,0,4.285-.906l.391,2.172a14.162,14.162,0,0,1-5.189.935c-4.555,0-7.03-2.414-7.03-7.689,0-4.5,2.444-7.845,6.7-7.845,4.225,0,6,2.867,6,6.3,0,.361-.03.785-.09,1.388m-6.037-5.7c-1.961,0-3.379,1.479-3.681,3.771h7.03c.06-2.293-1.236-3.771-3.35-3.771" transform="translate(2.956 3.37)"></path><path id="Path_3722" data-name="Path 3722" d="M43.547,28.87c-2.807-.457-4.4,1.943-4.4,6.742v6.035H36.429v-15h2.626a20.062,20.062,0,0,1-.333,3.56h.06c.572-2.359,2.005-4.687,6.215-3.793Z" transform="translate(4.656 3.352)"></path><path id="Path_3723" data-name="Path 3723" d="M64.51,28.87c-2.808-.457-4.4,1.943-4.4,6.742v6.035H57.392v-15h2.626a20.061,20.061,0,0,1-.332,3.56h.06c.572-2.359,2.005-4.687,6.214-3.793Z" transform="translate(7.335 3.352)"></path><path id="Path_3724" data-name="Path 3724" d="M49.792,49.351c-3.862,0-6.308-1.6-6.308-4.5a4.708,4.708,0,0,1,2.5-3.982,2.4,2.4,0,0,1-1.479-2.233,2.88,2.88,0,0,1,1.66-2.534,4.519,4.519,0,0,1-2.2-4.133c0-3.018,2.262-5.613,6.369-5.613a8.135,8.135,0,0,1,2.111.272h5.1v2.142H55.072a3.488,3.488,0,0,1,1.207,2.778c0,3.077-2.083,5.43-6.336,5.43a5.513,5.513,0,0,1-1.6-.212,1.482,1.482,0,0,0-.967,1.269c0,.845.756,1.085,2.566,1.175l2.745.091c3.229.121,5.039,1.629,5.039,4.344,0,3.168-3.228,5.7-7.935,5.7M51.9,41.567l-2.9-.121a8.064,8.064,0,0,1-.874-.03A3.762,3.762,0,0,0,46.2,44.373c0,1.781,1.689,2.836,4.043,2.836,3.046,0,4.736-1.389,4.736-3.229,0-1.448-.964-2.353-3.077-2.415M50.215,28.382a3.259,3.259,0,0,0-3.56,3.348c0,2.082,1.237,3.29,3.47,3.29,2.142,0,3.47-1.208,3.47-3.29a3.086,3.086,0,0,0-3.38-3.348" transform="translate(5.558 3.369)"></path><path id="Path_3725" data-name="Path 3725" d="M77.061,34.055H67.255c-.122,3.921,1.538,5.641,4.737,5.641a10.506,10.506,0,0,0,4.285-.9l.392,2.171a14.2,14.2,0,0,1-5.19.936c-4.555,0-7.028-2.414-7.028-7.691,0-4.5,2.443-7.845,6.7-7.845,4.224,0,6,2.867,6,6.306,0,.36-.029.784-.089,1.388m-6.034-5.7c-1.962,0-3.38,1.479-3.681,3.771h7.028c.06-2.293-1.236-3.771-3.347-3.771" transform="translate(8.237 3.37)"></path><path id="Path_3726" data-name="Path 3726" d="M89.784,34.055H79.978c-.12,3.921,1.539,5.641,4.738,5.641a10.493,10.493,0,0,0,4.283-.9l.392,2.171A14.186,14.186,0,0,1,84.2,41.9c-4.556,0-7.03-2.414-7.03-7.691,0-4.5,2.444-7.845,6.7-7.845,4.225,0,6,2.867,6,6.306,0,.36-.03.784-.09,1.388m-6.035-5.7c-1.961,0-3.379,1.479-3.681,3.771H87.1c.061-2.293-1.236-3.771-3.348-3.771" transform="translate(9.863 3.37)"></path><path id="Path_3727" data-name="Path 3727" d="M99.419,41.628V31.972c0-2.141-.573-3.379-2.565-3.379-2.473,0-4.254,2.534-4.254,5.854v7.181H89.885v-15h2.626a18.641,18.641,0,0,1-.24,3.169h.06a5.5,5.5,0,0,1,5.28-3.44c3.44,0,4.525,2.142,4.525,4.8V41.629Z" transform="translate(11.488 3.369)"></path><path id="Path_3728" data-name="Path 3728" d="M123.409,23.252l.044-.01V21.852h-7.49v1.387l.042.011a12.558,12.558,0,0,0,2.448.388v7H107.526v-7a12.583,12.583,0,0,0,2.45-.388l.039-.011V21.852h-7.486v1.389l.042.01a17.159,17.159,0,0,0,2.567.388V40.42a17.159,17.159,0,0,0-2.567.388l-.042.01v1.389h7.488V40.819l-.041-.012a12.669,12.669,0,0,0-2.448-.387V32.67h10.926v7.75a12.642,12.642,0,0,0-2.448.387l-.042.012v1.387h7.49V40.819l-.044-.01a17.144,17.144,0,0,0-2.566-.388V23.636a17.145,17.145,0,0,0,2.566-.388" transform="translate(13.104 2.793)"></path><path id="Path_3729" data-name="Path 3729" d="M127.943,26.346a6.011,6.011,0,0,0-4.864,2.244A8.84,8.84,0,0,0,121.35,34.2c0,5.112,2.34,7.7,6.953,7.7a13.088,13.088,0,0,0,4.941-.9l.036-.016-.223-2.04-.071.037a10,10,0,0,1-4.295.954,4.659,4.659,0,0,1-3.536-1.244c-.983-1.018-1.429-2.644-1.358-4.974h9.951l.006-.047a8.231,8.231,0,0,0,.061-1.118c0-3.884-2.2-6.2-5.874-6.2m-.12,1.819a3.485,3.485,0,0,1,2.571.983,3.774,3.774,0,0,1,.972,2.774h-7.437c.38-2.32,1.868-3.758,3.9-3.758" transform="translate(15.508 3.367)"></path><path id="Path_3730" data-name="Path 3730" d="M163.227,40.615s-1.161.015-2.141,0c-1.7-.02-2.2-.813-2.2-3.536V29.1h4.379v-1.88H158.89v-5.6l-2.359.661v4.934h-3.239V29.1h3.239v8.912c0,3.3,1.027,4.464,3.924,4.464a13.291,13.291,0,0,0,2.772-.24l.043-.01.015-1.609Z" transform="translate(19.592 2.764)"></path><path id="Path_3731" data-name="Path 3731" d="M180.513,41A16.381,16.381,0,0,0,178,40.608V31.933c0-3.221-1.532-4.854-4.553-4.854a5.515,5.515,0,0,0-5.267,3.412,16.957,16.957,0,0,0,.194-2.756v-7.34h-.053c-.315-.014-.654-.019-1.009-.019a31.022,31.022,0,0,0-3.828.229l-.048.006V22l.052,0c.818.055,1.815.17,2.558.292v18.31a17.013,17.013,0,0,0-2.567.387l-.044.01v1.389h7.429V41.008L170.827,41a12.5,12.5,0,0,0-2.45-.389V35.172c0-3.545,1.895-6.123,4.507-6.123,1.962,0,2.763,1.052,2.763,3.634v9.712h4.908V41.006Z" transform="translate(20.889 2.605)"></path><path id="Path_3732" data-name="Path 3732" d="M147.572,40.115a8.254,8.254,0,0,0-2.287-.394V31.26c0-3.352-1.7-4.914-5.333-4.914a14.8,14.8,0,0,0-5.118.814l-.036.012v4.083h1.482l.008-.046c.144-.872.294-1.773.386-2.576a11.178,11.178,0,0,1,2.918-.377c2.347,0,3.3,1,3.3,3.454v1.2a13.476,13.476,0,0,0-6.683,1.473,4.375,4.375,0,0,0-2.374,3.829c0,2.271,1.583,3.685,4.133,3.685a5.51,5.51,0,0,0,5.159-3.255,23.429,23.429,0,0,0-.116,2.923v.055l4.543-.039h.054V40.127ZM142.9,34.674v.155c0,2.469-1.653,5.134-4.326,5.134a2.134,2.134,0,0,1-2.375-2.163c0-1.163.872-3.11,6.7-3.124" transform="translate(17.105 3.367)"></path><path id="Path_3733" data-name="Path 3733" d="M154.281,41a16.758,16.758,0,0,0-2.538-.388V20.394h-.053c-.314-.014-.653-.019-1.009-.019a31.022,31.022,0,0,0-3.828.229l-.047.007V22l.052,0c.818.055,1.815.17,2.557.292v18.31a16.861,16.861,0,0,0-2.11.292l-.044.008v1.486h7.063V41Z" transform="translate(18.763 2.605)"></path><path id="Path_3734" data-name="Path 3734" d="M87.943,0a1.068,1.068,0,0,1,.611.129c.01.021.02.043.032.064h.064l.1.129a2.443,2.443,0,0,1,.321.353V.743l.064.032V.839L89.2.9V.968h.032v.064h.032V1.1h.033V1.16h.033c.01.065.02.13.032.194h.032v.064h.033v.1h.032q.049.289.1.579h.032v.29c.006.056.033.064.033.064-.01.16-.021.321-.033.48H89.55v.129h-.032v.129h-.033v.064h-.033v.1l-.064.032v.064l-.063.033-.1.129c-.054.037-.073,0-.129.064h-.354V3.637h-.063V3.6l-.194-.064c-.032-.043-.063-.087-.1-.129h-.064V3.379l-.1-.064V3.25c-.054-.042-.108-.085-.161-.129V3.057l-.064-.032-.033-.1h-.032c-.011-.043-.021-.086-.032-.127l-.065-.032c-.01-.044-.02-.087-.032-.13h-.032l-.033-.127h-.032c-.011-.054-.021-.107-.032-.161h-.033v-.1h-.032v-.1H87.59v-.1h-.032v-.1h-.033c-.01-.1-.021-.193-.032-.289a1.953,1.953,0,0,1-.033-.9V.615h.033c.011-.064.021-.129.032-.193h.033c.01-.043.021-.086.032-.129l.193-.16.033-.064c.054-.037.073,0,.129-.064" transform="translate(11.173 0)"></path><path id="Path_3735" data-name="Path 3735" d="M87.294,3.765A1.41,1.41,0,0,1,88,3.9v.032h.064l.033.064h.064l.032.064h.064l.129.161h.064l.033.064.129.1v.064l.16.129c.011.033.021.064.032.1l.064.032v.064l.064.033c.011.032.021.064.032.1H89v.064l.064.033.064.193.064.032v.063h.032v.065h.033v.1h.032l.033.129h.032c.01.053.021.106.032.16h.032c.033.14.064.279.1.421a2.343,2.343,0,0,1,.064,1.447v.1h-.032l-.064.193h-.033v.064l-.127.1-.033.063c-.053.037-.073,0-.129.064L88.77,8.2a1.7,1.7,0,0,1-.836-.579L87.678,7.4V7.335l-.1-.064V7.206l-.064-.032-.032-.1h-.032V7.014l-.064-.032-.033-.129-.064-.032c-.021-.064-.043-.127-.064-.193H87.2V6.565h-.032V6.5h-.032l-.064-.193h-.033v-.1H87V6.147h-.033l-.064-.29a2.354,2.354,0,0,1-.129-1.446V4.283h.033l.064-.193h.032V4.026l.1-.064.032-.064H87.1l.032-.064.16-.033Z" transform="translate(11.083 0.481)"></path><path id="Path_3736" data-name="Path 3736" d="M92.12,3.964c.7.02.932.551.932,1.286-.01.182-.021.364-.032.546h-.033c-.01.1-.02.193-.032.29h-.032c-.011.076-.021.15-.033.226H92.86v.063h-.033c-.01.064-.021.13-.032.193h-.032v.064h-.033v.1H92.7c-.023.064-.044.129-.065.193H92.6c-.021.064-.043.127-.064.193l-.064.032c-.011.043-.021.086-.033.129H92.41l-.032.1-.065.032v.068l-.1.064V7.6l-.129.1v.064l-.257.224-.1.129h-.063l-.065.1h-.064c-.01.021-.021.042-.032.064a1.232,1.232,0,0,1-1,.16,1.2,1.2,0,0,1-.547-.8V7.372h-.033V7.018h.033V6.729l.257-.9h.032l.064-.193h.033V5.571h.032V5.507h.033V5.443h.032c.021-.064.044-.129.064-.193h.033c.011-.033.021-.064.032-.1l.064-.033V5.057l.064-.033V4.96c.033-.02.064-.043.1-.064V4.831L91,4.671V4.607l.129-.1V4.478h.064l.127-.16h.064l.064-.1.129-.034.033-.063h.064V4.094h.064V4.061h.1V4.029h.1V4h.193Z" transform="translate(11.494 0.507)"></path><path id="Path_3737" data-name="Path 3737" d="M84.3,6.693a.276.276,0,0,0,.129-.063V6.6H84.5V6.566h.064V6.533h.127V6.5a1.658,1.658,0,0,1,.547.064V6.6l.129.033v.032l.193.064c.01.021.021.043.033.064h.064l.064.1h.064c.021.032.042.064.064.1h.064l.1.129h.065l.064.1H86.2l.064.1h.064l.1.129.1.033.033.064h.064l.032.064.1.032.1.129h.064c.023.033.043.064.064.1h.064l.064.1h.064l.1.129h.064l.064.1h.064l.064.1h.064l.1.129h.064l.064.1h.064l.064.1H88l.064.1h.064l.1.129h.064l.16.193h.064V9.04l.1.064v.064l.224.193v.064l.1.064v.064l.1.064v.064l.064.033.032.1h.032v.064l.064.032c.023.064.043.129.064.193l.064.032c.011.043.023.087.033.129h.032c.01.043.021.087.033.129h.032v.1h.032l.033.129h.032c.01.053.021.107.032.16h.033v.1h.032v.1H89.7v.1h.033v.1h.032c.011.074.021.149.032.224h.033v.129a3.446,3.446,0,0,1-.033,1.832v.1h-.032v.064h-.028v.065l-.064.032v.064l-.064.032-.1.13-.129.032v.033a1.031,1.031,0,0,1-.417.064v-.033H88.8v-.032h-.1v-.034h-.064v-.032h-.1l-.032-.064-.129-.032-.032-.064h-.064l-.064-.1h-.064l-.1-.129H88l-.129-.161h-.064l-.1-.129h-.064l-.1-.129h-.064l-.129-.16h-.064l-.1-.129h-.064L87,12.574h-.064l-.1-.129h-.064l-.1-.129h-.064l-.129-.16h-.064l-.033-.064h-.032l-.032-.064h-.064l-.129-.161h-.067l-.032-.064h-.033l-.032-.064h-.064l-.129-.16h-.064l-.129-.161h-.064l-.033-.064-.127-.1v-.064L85.139,11v-.064l-.1-.064v-.064l-.1-.064v-.064l-.064-.033v-.064l-.064-.032c-.01-.043-.021-.086-.032-.129l-.064-.033-.064-.193-.064-.032c-.011-.043-.021-.086-.032-.127h-.033c-.01-.043-.021-.087-.032-.129h-.033v-.1h-.032L84.4,9.683h-.032c-.01-.054-.021-.107-.032-.16h-.032c-.011-.064-.023-.129-.033-.193h-.032v-.1h-.033v-.1h-.032v-.1h-.033V8.912h-.032c-.01-.086-.021-.171-.032-.257h-.033c-.01-.149-.02-.3-.032-.45a2.022,2.022,0,0,1-.032-.674l.129-.546h.032c.011-.043.021-.086.032-.129h.032a.355.355,0,0,0,.1-.161" transform="translate(10.732 0.831)"></path><path id="Path_3738" data-name="Path 3738" d="M94.817,7.041a1.256,1.256,0,0,1,.674.1c.034.043.065.086.1.127l.129.1v.064h.033c.01.043.02.086.032.129h.032v.127a2.566,2.566,0,0,1-.193,1.671c-.01.064-.02.129-.032.194h-.032c-.023.063-.044.127-.065.193h-.033v.064h-.032V9.87H95.4v.064h-.033V10h-.032v.064l-.064.064v.064l-.064.032c-.01.043-.023.086-.033.129h-.032c-.011.033-.021.064-.032.1-.021.011-.043.023-.064.032v.064l-.064.033v.064l-.064.032-.033.1-.127.1v.063l-.193.161-.354.386h-.064l-.064.1h-.064l-.064.1h-.064c-.02.033-.043.064-.064.1h-.064c-.02.032-.043.064-.064.1h-.064l-.032.064h-.065l-.032.065-.1.032-.064.1h-.064c-.021.032-.042.064-.064.095-.032.011-.064.023-.1.032l-.033.064h-.064l-.032.064h-.064l-.033.064-.1.033-.064.1h-.064c-.02.033-.043.064-.064.1h-.064l-.064.1h-.064c-.02.033-.043.064-.064.1h-.064l-.033.064h-.064c-.021.032-.042.064-.064.1h-.064l-.064.1h-.064l-.064.1-.1.033-.033.064a1.292,1.292,0,0,1-1.413.193l-.1-.129h-.03v-.064a2.574,2.574,0,0,1,.1-2.344v-.1l.48-.867.064-.033V9.9L90.9,9.87c.011-.033.021-.064.033-.1l.129-.1V9.613l.16-.129.29-.321h.063l.1-.129h.064c.011-.021.021-.043.032-.064l.1-.032V8.907h.064c.01-.023.021-.044.032-.065h.064l.064-.1h.064l.033-.064.1-.032V8.617h.064l.032-.064h.063c.012-.021.023-.042.034-.064h.064c.01-.021.02-.043.032-.064h.064l.064-.1h.063l.033-.064.1-.033V8.2h.064l.033-.064h.064c.011-.021.021-.043.032-.064h.064l.064-.1h.064l.033-.064.1-.032V7.846h.064c.01-.021.021-.043.033-.064h.064c.01-.021.02-.043.032-.064h.064l.032-.064h.064l.064-.1h.064c.01-.023.021-.044.033-.064l.1-.033V7.429h.064c.01-.021.023-.043.033-.064l.1-.032V7.3l.129-.033c.011-.02.021-.042.032-.064h.064V7.172h.1V7.14h.064V7.108l.223-.033Z" transform="translate(11.495 0.899)"></path><path id="Path_3739" data-name="Path 3739" d="M98.291,9.748c.805-.014,1,.467,1,1.253v.579h-.032v.193h-.033v.162h-.032v.159H99.16c-.01.074-.021.149-.032.226H99.1c-.011.063-.021.129-.032.192h-.036c-.01.064-.021.13-.033.194h-.027c-.01.053-.021.107-.032.16H98.9v.064h-.032c-.011.053-.023.107-.033.16h-.032c-.012.044-.021.086-.033.13h-.032c-.023.063-.043.127-.065.192l-.063.064v.065l-.068.029c-.011.043-.021.086-.033.129l-.064.032v.064l-.064.033v.065h-.033l-.032.095-.064.033v.064l-.1.064v.065l-.129.095v.064l-.226.194-.16.192h-.06c-.054.067-.108.13-.161.193h-.064l-.129.161h-.067L97,15.306H96.94c-.054.064-.107.127-.16.193h-.065l-.129.16h-.064l-.16.193H96.3c-.023.032-.043.064-.064.1H96.2l-.032.064h-.064l-.161.193h-.063l-.129.16H95.69c-.054.064-.108.127-.16.192h-.064l-.161.193H95.24l-.129.161h-.064l-.16.193h-.065l-.127.161h-.065l-.16.193H94.4l-.129.16h-.064l-.16.193h-.065l-.127.161h-.064l-.16.193h-.064l-.161.193h-.064l-.129.16h-.064l-.16.193h-.064l-.064.1h-.033l-.032.064h-.064l-.1.129H92.6l-.033.064h-.064l-.129.16h-.064l-.16.193h-.064l-.127.161H91.9l-.161.193h-.064l-.129.16h-.064c-.01.023-.021.043-.032.064h-.064l-.032.064-.129.032v.032l-.13.033v.032H91v.032h-.129v.032a.838.838,0,0,1-.451-.064v-.032h-.063l-.033-.064h-.067c-.011-.032-.02-.064-.032-.1l-.1-.064v-.063a2.421,2.421,0,0,1-.193-1.19,4.139,4.139,0,0,1,.258-1.574l.064-.289h.032c.01-.043.021-.086.033-.13h.032v-.1h.032l.064-.193h.033v-.062h.033v-.06h.032V16.21h.032v-.064h.033v-.064l.064-.033.032-.127.064-.033c.01-.043.021-.086.033-.127l.064-.033v-.064l.1-.064v-.063l.1-.065v-.064l.16-.127v-.069l.257-.226c.02-.032.043-.064.064-.1h.064l.1-.127h.064l.1-.13h.064l.1-.129h.064l.1-.129.1-.033.032-.064h.064l.1-.127h.067c.032-.044.064-.086.1-.129H92.7l.1-.129h.064l.1-.129h.064l.1-.13h.064l.064-.095h.064l.1-.13h.064l.1-.129c.818-.588,1.558-1.245,2.377-1.832l.1-.127h.064l.1-.13h.064l.1-.127h.064c.033-.044.064-.087.1-.129h.064l.1-.13h.064l.064-.1h.064l.1-.129h.064l.1-.129H97.2l.1-.129h.064l.1-.127h.063c.021-.032.043-.065.065-.1h.063l.065-.1h.063l.033-.064h.064V9.907l.193-.063V9.81h.1V9.778h.127Z" transform="translate(11.493 1.246)"></path><path id="Path_3740" data-name="Path 3740" d="M82.244,10.261a1.731,1.731,0,0,1,.961.323l.033.064H83.3l.064.1h.064l.064.1h.064l.032.065h.064l.064.1h.064l.064.1h.064l.033.064h.064l.064.1h.064l.064.1h.064l.064.1h.064l.032.064h.064l.064.1h.064l.064.1h.064l.033.064h.064l.064.1h.064l.064.095.1.033.033.064h.064l.032.065h.064l.032.064.1.032.064.1h.064l.032.064h.064l.064.1h.064l.064.1h.064l.064.1h.064l.032.064h.064l.033.065.1.033.064.095h.064l.033.064h.064l.064.1h.064l.064.095h.064c.01.024.021.043.032.064h.064l.064.1H87l.064.1.1.032.032.064h.064c.01.023.021.042.032.064h.064l.032.064.1.033.064.1h.064l.033.064H87.7l.064.1h.064l.064.1h.064l.064.095h.064l.033.064h.064l.032.064.1.034.064.1h.064l.032.063h.064l.064.1h.064l.1.129h.064l.256.29.129.1v.064l.129.1v.063l.1.064.032.1.064.033v.064l.064.032c.01.043.021.086.032.129l.064.032.064.193.064.033v.064h.033v.064h.032l.033.16h.032v.064h.032c.011.043.021.086.032.129h.033c.01.064.021.127.032.193h.033v.1h.032v.1h.032v.1h.032v.1h.033v.129h.032v.16H90.3v.16h.033v.257h.032a2.427,2.427,0,0,1-.032.771v.643a2.31,2.31,0,0,1-.226.61l-.129.1-.064.1a1.105,1.105,0,0,1-.961-.032l-.064-.064h-.064l-.032-.064h-.064l-.032-.064h-.064l-.1-.129h-.064l-.129-.16h-.064l-.1-.129h-.063l-.1-.129h-.064l-.129-.161h-.064l-.1-.129h-.064l-.1-.129h-.064l-.129-.16h-.064l-.032-.064h-.032c-.011-.02-.023-.043-.033-.064H87.1l-.032-.064h-.032L87,18.36h-.064l-.129-.16h-.067l-.1-.129h-.064l-.129-.16h-.064l-.1-.129h-.064l-.1-.129h-.064l-.129-.16h-.064l-.1-.129h-.064l-.1-.129h-.064l-.129-.16h-.063l-.1-.129H85.2l-.1-.129h-.064l-.129-.16h-.064l-.1-.129h-.064l-.1-.129h-.064l-.129-.16h-.064l-.1-.129h-.064l-.1-.129H84.01l-.129-.16h-.064l-.1-.129h-.064l-.1-.129H83.5l-.129-.161H83.3l-.1-.129h-.064l-.29-.321-.193-.16v-.064l-.125-.1v-.059l-.064-.033v-.065l-.1-.064v-.068l-.064-.032c-.01-.043-.021-.086-.032-.129l-.064-.032c-.011-.042-.021-.086-.032-.127l-.064-.032v-.065l-.064-.064V13.8h-.033v-.068H81.99l-.1-.29h-.032v-.064H81.83V13.28H81.8v-.067h-.032c-.011-.063-.021-.127-.032-.192H81.7a3.689,3.689,0,0,1-.129-2.121v-.1h.033l.064-.193.193-.16.032-.065h.064v-.032l.129-.033V10.29h.16Z" transform="translate(10.413 1.312)"></path><path id="Path_3741" data-name="Path 3741" d="M95.656,17.1c1.185-.021.923,1.642.643,2.41v.127h-.033V19.7h-.032c-.011.064-.023.129-.033.193H96.17c-.011.054-.021.108-.033.16h-.032c-.011.043-.021.087-.032.129h-.033v.1H96.01c-.011.043-.021.085-.033.127h-.032c-.011.044-.021.086-.032.13l-.064.033v.063h-.033V20.7l-.064.064v.064l-.064.032v.065l-.064.032v.064l-.064.032v.065l-.064.032v.064l-.064.032v.064l-.1.064c-.012.032-.021.064-.033.1l-.226.193v.065l-.16.1-.226.257h-.064l-.033.064h-.032l-.127.161h-.064l-.193.224h-.064l-.193.226h-.064c-.064.074-.13.149-.193.224H93.6c-.064.074-.129.149-.193.226h-.064l-.193.224h-.064l-.193.224h-.064c-.063.076-.127.15-.193.226h-.063c-.065.074-.13.149-.193.224h-.064v.032l-.1.064-.129.161h-.064V24.4l-.1.064-.1.129h-.064l-.193.226h-.064l-.064.1h-.064l-.033.064h-.064c-.011.023-.021.043-.032.065H91.19v.032l-.129.033v.032h-.1v.032h-.129V25.2a.844.844,0,0,1-.45-.064V25.1h-.064l-.1-.13-.064-.032v-.064a3.144,3.144,0,0,1,.032-2.41l.064-.29h.032v-.064h.033v-.1h.032c.011-.042.023-.085.033-.127h.032v-.064h.033c.032-.1.064-.193.1-.29l.065-.033.063-.192.064-.033c.011-.043.021-.086.033-.127H90.8l.032-.1.064-.032v-.064l.1-.064v-.065l.1-.064V20.7l.16-.127v-.064l.226-.193.063-.1h.065l.127-.16H91.8l.1-.129h.064l.032-.064c.032-.021.064-.044.1-.064v-.033h.063l.13-.16h.064l.1-.129h.064l.129-.161H92.7l.1-.127h.064l.129-.16h.064l.129-.161h.064l.032-.064h.032l.033-.064H93.4l.129-.16H93.6l.129-.16h.064l.1-.129h.064l.129-.16h.064c.032-.044.064-.087.1-.129H94.3c.043-.054.087-.107.129-.161H94.5c.043-.053.087-.106.129-.16h.064l.1-.127h.064l.1-.129h.063c.011-.021.023-.043.033-.064h.064c.01-.021.02-.043.032-.064l.129-.033v-.032L95.4,17.2v-.032c.083-.036.194-.008.256-.064" transform="translate(11.494 2.186)"></path></g></g></g></svg> 