<?xml version="1.0" encoding="utf-8"?>
<!-- Generator: Adobe Illustrator 24.2.1, SVG Export Plug-In . SVG Version: 6.00 Build 0)  -->
<svg version="1.1" id="Layer_1" xmlns="http://www.w3.org/2000/svg" xmlns:xlink="http://www.w3.org/1999/xlink" x="0px" y="0px"
	 viewBox="0 0 148 56" style="enable-background:new 0 0 148 56;" xml:space="preserve">
<style type="text/css">
	.st0{fill:#FFFFFF;}
</style>
<g>
	<path class="st0" d="M0.9,42.9c0-5.6,4.2-9.1,9.4-9.1c3.7,0,6,1.9,7.3,3.9l-3.1,1.7c-0.8-1.2-2.3-2.3-4.2-2.3
		c-3.2,0-5.5,2.5-5.5,5.8c0,3.3,2.3,5.8,5.5,5.8c1.6,0,3-0.7,3.8-1.4v-2.1H9.4v-3.3h8.4v6.8c-1.8,2-4.3,3.3-7.5,3.3
		C5.1,52,0.9,48.4,0.9,42.9"/>
	<path class="st0" d="M19.9,45.3c0-3.7,2.7-6.7,6.6-6.7c3.8,0,6.4,2.9,6.4,7v0.7h-9.5c0.2,1.6,1.5,3,3.7,3c1.1,0,2.6-0.5,3.4-1.3
		l1.5,2.2c-1.3,1.2-3.3,1.8-5.3,1.8C22.8,52,19.9,49.4,19.9,45.3 M26.5,41.3c-2.1,0-3,1.6-3.2,2.8h6.3
		C29.6,42.9,28.7,41.3,26.5,41.3"/>
	<path class="st0" d="M34.6,45.3c0-3.6,2.5-6.7,6.8-6.7c4.2,0,6.8,3.1,6.8,6.7c0,3.7-2.5,6.7-6.8,6.7C37.1,52,34.6,48.9,34.6,45.3
		 M44.6,45.3c0-2-1.2-3.7-3.3-3.7S38,43.3,38,45.3c0,2,1.2,3.7,3.3,3.7S44.6,47.3,44.6,45.3"/>
	<path class="st0" d="M59.2,51.7V44c0-1.8-0.9-2.4-2.4-2.4c-1.3,0-2.4,0.7-2.9,1.5v8.6h-3.4V38.9h3.4v1.7c0.8-1,2.4-2,4.5-2
		c2.8,0,4.2,1.6,4.2,4.1v9H59.2z"/>
	<path class="st0" d="M65.1,45.3c0-3.7,2.7-6.7,6.6-6.7c3.8,0,6.4,2.9,6.4,7v0.7h-9.5c0.2,1.6,1.5,3,3.7,3c1.1,0,2.6-0.5,3.4-1.3
		l1.5,2.2c-1.3,1.2-3.3,1.8-5.3,1.8C68,52,65.1,49.4,65.1,45.3 M71.7,41.3c-2.1,0-3,1.6-3.2,2.8h6.3C74.8,42.9,73.9,41.3,71.7,41.3"
		/>
	<path class="st0" d="M81.2,48.5v-6.7h-2.1v-2.9h2.1v-3.5h3.4v3.5h2.6v2.9h-2.6v5.8c0,0.8,0.4,1.4,1.2,1.4c0.5,0,1-0.2,1.2-0.4
		l0.7,2.5c-0.5,0.4-1.4,0.8-2.8,0.8C82.5,52,81.2,50.8,81.2,48.5"/>
	<path class="st0" d="M89.5,51.7V38.9h3.4v1.7c0.9-1.1,2.5-2.1,4.1-2.1v3.3c-0.2-0.1-0.6-0.1-0.9-0.1c-1.1,0-2.6,0.6-3.2,1.5v8.5
		H89.5z"/>
	<path class="st0" d="M98.7,35.5c0-1.1,0.9-2,2-2c1.1,0,2,0.9,2,2s-0.9,2-2,2C99.6,37.5,98.7,36.6,98.7,35.5 M99.1,38.9h3.4v12.8
		h-3.4V38.9z"/>
	<path class="st0" d="M104.9,45.3c0-3.9,2.8-6.7,6.8-6.7c2.6,0,4.2,1.1,5.1,2.3l-2.2,2.1c-0.6-0.9-1.5-1.4-2.7-1.4
		c-2,0-3.5,1.5-3.5,3.7s1.4,3.7,3.5,3.7c1.2,0,2.1-0.5,2.7-1.4l2.2,2c-0.8,1.2-2.4,2.3-5.1,2.3C107.8,52,104.9,49.2,104.9,45.3"/>
	<path class="st0" d="M138.4,28.5c0.3-1.2,0.5-2.4,0.6-3.7l-0.7-0.6c-2.1,0.7-4.3,0.7-6.4,0l-0.7,0.5c-0.2,3.3-2.9,5.9-6.2,5.9h0
		c-1.7,0-3.2-0.7-4.4-1.8c-1.2-1.2-1.8-2.7-1.8-4.4c0-3.3,2.6-6,5.9-6.2l0.5-0.7c-0.3-1-0.5-2.1-0.5-3.2c0-1.1,0.2-2.2,0.5-3.2
		l-0.6-0.7c-7.5,0.2-13.7,6.5-13.7,14c0,3.8,1.4,7.3,4.1,10s6.2,4.1,9.9,4.1h0c3.3,0,6.5-1.2,9-3.3c2.9,0.5,5.1,3.1,5.1,6.1
		c0,3.4-2.8,6.2-6.2,6.2h0c-1.5,0-2.9-0.5-4-1.5l-0.9,0.3c-0.5,2.2-2.4,3.8-4.6,4l-0.4,1c2.7,2.7,6.2,4.1,9.9,4.1h0
		c3.8,0,7.3-1.5,9.9-4.1c2.7-2.7,4.1-6.2,4.1-9.9C146.9,35.8,143.5,30.7,138.4,28.5"/>
	<path class="st0" d="M123.2,48.5c1.9-0.2,3.3-1.8,3.1-3.7c0-0.3-0.1-0.6-0.2-0.8c0-0.1-0.1-0.2-0.1-0.3c-0.6-1.3-1.9-2.1-3.4-2
		c-1.9,0.2-3.3,1.8-3.1,3.7c0,0,0,0.1,0,0.1c0.1,0.6,0.3,1.2,0.7,1.7C120.9,48,122,48.6,123.2,48.5"/>
	<path class="st0" d="M135.7,22.3c4.3-0.4,7.6-4.2,7.2-8.5c-0.4-4.3-4.2-7.6-8.5-7.2c-4.3,0.4-7.6,4.2-7.2,8.5
		C127.5,19.4,131.3,22.7,135.7,22.3"/>
	<path class="st0" d="M140.4,4.9c0.4,1.5,1.6,2.5,3.1,2.6c0.2,0,0.3,0,0.5,0c1.9-0.2,3.3-1.8,3.2-3.7c-0.2-1.9-1.8-3.3-3.7-3.2
		c-1.9,0.2-3.3,1.8-3.2,3.7C140.3,4.5,140.3,4.7,140.4,4.9"/>
</g>
</svg>
