<?xml version="1.0" encoding="UTF-8"?> <svg xmlns="http://www.w3.org/2000/svg" id="a" width="162.61" height="69.38" viewBox="0 0 162.61 69.38"><g><path d="M110.83,12.52c-3.52,3.74-9.6,8.66-18.74,8.66-14.85,0-23.47-15.11-34.45-15.11-6.18,0-11.76,3.79-12.3,9.68-.04,.44-.42,.78-.86,.78h-4.83c-.51,0-.89-.42-.87-.93C39.32,6.51,47.45,0,56.8,0c16.37,0,21.16,16.66,38.78,16.66,5.32,0,10.95-2.61,14.58-4.96,.53-.35,1.11,.35,.67,.8" fill="#231f20"></path><path d="M71.34,16.51h-18.26c-.51,0-.8,.58-.49,.98l3.12,4.19c.18,.26,.49,.4,.8,.4h6.47c.38,0,.6,.46,.36,.75-2.3,2.84-6.03,4.52-10.01,4.14-11.46-1.13-19.32-15.13-34.17-15.13-9.13,0-15.49,4.92-19.01,8.66-.44,.46,.15,1.15,.67,.8,3.63-2.35,9.26-4.96,14.58-4.96,17.62,0,22.98,16.66,38.78,16.66,9.35,0,17.48-6.51,18.01-15.58,.04-.49-.36-.93-.87-.93" fill="#231f20"></path><path d="M42.02,58.47c.22,.38,.47,.87,.75,1.44s.56,1.15,.84,1.77c.29,.62,.56,1.26,.86,1.9,.29,.64,.55,1.24,.78,1.77,.24-.55,.49-1.13,.77-1.77,.27-.64,.56-1.28,.84-1.9,.29-.62,.56-1.2,.84-1.77s.53-1.04,.75-1.44h1.75c.09,.78,.18,1.6,.27,2.48s.16,1.77,.22,2.7c.07,.91,.13,1.84,.18,2.77,.05,.93,.11,1.84,.15,2.72h-1.91c-.04-1.24-.09-2.52-.15-3.83-.05-1.31-.15-2.59-.26-3.81-.11,.24-.26,.51-.4,.84s-.31,.69-.49,1.08-.35,.78-.53,1.18-.35,.8-.53,1.18c-.16,.38-.33,.75-.47,1.08s-.27,.62-.36,.86h-1.44c-.11-.24-.22-.53-.36-.86-.15-.35-.31-.69-.47-1.09-.16-.38-.35-.78-.53-1.18s-.35-.8-.53-1.18c-.18-.38-.35-.73-.49-1.08-.15-.33-.29-.62-.4-.84-.11,1.24-.2,2.5-.26,3.81-.05,1.31-.11,2.59-.15,3.83h-1.91c.04-.87,.09-1.8,.15-2.73,.05-.95,.13-1.88,.18-2.81,.07-.93,.15-1.82,.22-2.7,.09-.87,.16-1.68,.27-2.42h1.79l.05,.02Z" fill="#231f20"></path></g><polygon points="53.1 58.47 53.1 69.13 60.31 69.13 60.31 67.49 55.05 67.49 55.05 64.35 59.4 64.35 59.4 62.75 55.05 62.75 55.05 60.11 59.95 60.11 59.95 58.47 53.1 58.47" fill="#231f20"></polygon><path d="M64.29,67.52c.11,0,.26,0,.44,.02h.75c1.31,0,2.28-.33,2.92-.98s.97-1.59,.97-2.77-.31-2.13-.93-2.79-1.6-.97-2.92-.97c-.56,0-.98,0-1.22,.04,0,0,0,7.45,0,7.45Zm7.11-3.74c0,.93-.15,1.73-.44,2.41s-.69,1.26-1.22,1.71c-.53,.46-1.17,.8-1.91,1.02-.75,.22-1.57,.33-2.46,.33-.44,0-.91,0-1.46-.05-.55-.04-1.06-.11-1.55-.22v-10.35c.49-.11,1.02-.18,1.57-.22s1.04-.04,1.48-.04c.89,0,1.71,.11,2.44,.31,.75,.22,1.37,.55,1.9,.98s.93,1,1.22,1.69c.29,.67,.44,1.49,.44,2.44" fill="#231f20"></path><rect x="73.4" y="58.47" width="1.93" height="10.66" fill="#231f20"></rect><g><path d="M82.31,69.36c-.8,0-1.51-.13-2.15-.36-.64-.26-1.18-.6-1.62-1.08-.44-.47-.78-1.06-1.02-1.75-.24-.69-.35-1.48-.35-2.37s.13-1.68,.4-2.37,.64-1.28,1.11-1.75c.47-.47,1.02-.84,1.66-1.09s1.31-.36,2.04-.36c.44,0,.84,.04,1.2,.11s.67,.15,.93,.22c.27,.09,.49,.16,.66,.26,.18,.09,.29,.16,.36,.2l-.56,1.59c-.26-.15-.6-.29-1.06-.44s-.95-.2-1.48-.2c-.46,0-.89,.07-1.29,.24-.4,.16-.75,.4-1.04,.71s-.53,.71-.69,1.2-.26,1.04-.26,1.68c0,.56,.05,1.08,.2,1.55,.13,.47,.33,.87,.6,1.22s.6,.62,1.02,.8,.91,.29,1.48,.29c.69,0,1.24-.07,1.68-.2,.44-.15,.77-.27,1-.4l.53,1.59c-.13,.07-.29,.16-.49,.24-.2,.09-.46,.16-.75,.24s-.6,.15-.97,.18c-.36,.04-.75,.07-1.15,.07" fill="#231f20"></path><path d="M92.12,60.53c-.24,.55-.51,1.2-.8,1.99-.31,.78-.62,1.62-.95,2.53h3.52c-.33-.91-.64-1.77-.95-2.55-.31-.78-.56-1.44-.8-1.97m3.15,8.6c-.15-.42-.29-.84-.46-1.24-.15-.4-.31-.84-.46-1.26h-4.5c-.15,.44-.29,.86-.44,1.28s-.29,.84-.44,1.24h-2.02c.4-1.13,.78-2.19,1.13-3.15,.36-.97,.71-1.88,1.06-2.73,.35-.86,.69-1.68,1.02-2.46,.35-.78,.69-1.55,1.04-2.31h1.86c.36,.77,.71,1.53,1.04,2.31,.35,.78,.67,1.6,1.02,2.46,.35,.86,.69,1.77,1.06,2.73s.75,2.02,1.15,3.15h-2.1l.04-.02Z" fill="#231f20"></path></g><polygon points="98.88 58.47 98.88 69.13 105.62 69.13 105.62 67.45 100.81 67.45 100.81 58.47 98.88 58.47" fill="#231f20"></polygon><g><path d="M115.88,59.92c-1.09,0-1.93,.35-2.52,1.02-.58,.67-.87,1.62-.87,2.84,0,.58,.07,1.09,.2,1.59,.15,.47,.35,.89,.62,1.22,.27,.35,.6,.6,1.02,.8,.4,.2,.87,.29,1.42,.29,.33,0,.64,0,.87-.04,.26-.02,.44-.05,.58-.09v-3.83h1.93v5.12c-.27,.11-.73,.22-1.35,.35-.64,.13-1.37,.18-2.21,.18-.77,0-1.48-.13-2.11-.36-.64-.26-1.18-.6-1.62-1.08-.46-.47-.8-1.06-1.04-1.73-.26-.69-.36-1.48-.36-2.37s.13-1.68,.4-2.37,.64-1.28,1.11-1.75c.47-.47,1.02-.84,1.66-1.08,.64-.26,1.31-.36,2.02-.36,.49,0,.93,.04,1.31,.09,.38,.07,.71,.15,.98,.22,.27,.09,.51,.16,.69,.26s.31,.16,.38,.2l-.58,1.59c-.31-.18-.69-.35-1.15-.47s-.93-.2-1.44-.2" fill="#231f20"></path><path d="M124.45,60.03c-.4,0-.78,0-1.13,.05v3.44h.84c.47,0,.89-.02,1.24-.07,.36-.05,.66-.15,.89-.27s.42-.31,.55-.55c.13-.22,.18-.51,.18-.86,0-.33-.05-.6-.18-.84-.13-.22-.29-.4-.53-.55-.24-.13-.51-.22-.82-.29-.31-.05-.67-.09-1.04-.09m-.15-1.68c1.53,0,2.72,.29,3.54,.86,.82,.56,1.22,1.42,1.22,2.59,0,1.44-.71,2.42-2.13,2.93,.2,.24,.42,.53,.66,.86,.26,.35,.49,.71,.75,1.09,.26,.4,.51,.8,.73,1.22,.24,.42,.46,.82,.64,1.22h-2.17c-.2-.36-.4-.75-.64-1.11-.22-.36-.46-.73-.69-1.09-.24-.35-.46-.69-.69-1-.22-.31-.44-.6-.64-.84h-1.6v4.03h-1.93v-10.52c.47-.11,.98-.16,1.51-.2s1-.05,1.44-.05" fill="#231f20"></path><path d="M132.58,63.79c0,.58,.07,1.11,.22,1.59s.35,.87,.62,1.22c.27,.33,.6,.6,.98,.78s.84,.27,1.33,.27,.91-.09,1.31-.27c.38-.18,.71-.44,.98-.78s.47-.73,.62-1.22c.15-.47,.22-1,.22-1.59s-.07-1.11-.22-1.59-.35-.87-.62-1.22-.6-.58-.98-.78c-.38-.18-.82-.27-1.31-.27s-.93,.09-1.33,.27c-.38,.18-.73,.44-.98,.78-.27,.35-.47,.75-.62,1.22-.15,.47-.22,1-.22,1.59m8.33,0c0,.91-.13,1.71-.4,2.42-.27,.69-.64,1.28-1.11,1.75-.47,.46-1.02,.82-1.64,1.06-.62,.24-1.29,.35-2,.35s-1.39-.11-2-.35c-.64-.24-1.18-.58-1.64-1.06-.47-.47-.84-1.06-1.11-1.75-.27-.69-.42-1.49-.42-2.42s.13-1.71,.42-2.41c.27-.69,.66-1.28,1.13-1.75s1.04-.82,1.66-1.06c.62-.24,1.29-.35,1.99-.35s1.37,.11,1.99,.35,1.17,.58,1.64,1.06c.47,.47,.84,1.06,1.11,1.75,.27,.69,.42,1.49,.42,2.41" fill="#231f20"></path><path d="M146.87,69.36c-.73,0-1.35-.11-1.88-.31-.53-.2-.95-.51-1.29-.89-.35-.38-.6-.82-.77-1.33s-.26-1.08-.26-1.69v-6.67h1.95v6.47c0,.49,.05,.89,.16,1.24s.26,.62,.46,.84,.44,.38,.71,.47c.27,.11,.58,.15,.91,.15s.66-.05,.93-.15c.27-.11,.51-.26,.71-.47s.35-.49,.46-.84,.16-.75,.16-1.24v-6.47h1.95v6.67c0,.62-.09,1.18-.26,1.69s-.42,.97-.77,1.33c-.35,.38-.78,.67-1.31,.89-.53,.2-1.17,.31-1.9,.31" fill="#231f20"></path><path d="M156.53,60.03c-.49,0-.89,0-1.22,.05v3.63h.93c.93,0,1.66-.13,2.15-.38,.51-.26,.75-.75,.75-1.48,0-.35-.07-.64-.2-.87s-.31-.42-.55-.55c-.24-.13-.51-.22-.84-.29-.33-.05-.67-.09-1.04-.09m-.15-1.68c1.55,0,2.73,.29,3.55,.86s1.24,1.44,1.24,2.64c0,.62-.11,1.17-.33,1.6s-.55,.8-.97,1.09c-.42,.27-.93,.49-1.55,.62s-1.29,.2-2.08,.2h-.97v3.75h-1.93v-10.52c.46-.11,.95-.16,1.49-.2s1.06-.05,1.51-.05" fill="#231f20"></path><path d="M20.15,35.74c-2.21,0-3.86,.67-5.03,2.04-1.17,1.37-1.73,3.26-1.73,5.69,0,1.15,.13,2.21,.42,3.15,.27,.95,.69,1.77,1.22,2.44,.55,.67,1.22,1.2,2.02,1.59,.8,.38,1.77,.56,2.84,.56,.67,0,1.26-.02,1.75-.07s.87-.13,1.17-.2v-7.65h3.88v10.24c-.53,.2-1.44,.44-2.72,.67-1.28,.24-2.73,.36-4.41,.36-1.53,0-2.93-.26-4.21-.75-1.28-.49-2.35-1.2-3.24-2.15s-1.59-2.1-2.08-3.48-.75-2.95-.75-4.74,.27-3.37,.82-4.74c.55-1.37,1.29-2.53,2.24-3.5,.95-.95,2.04-1.68,3.32-2.17s2.62-.75,4.06-.75c.98,0,1.86,.07,2.62,.2s1.44,.29,1.99,.46,1,.35,1.37,.53,.62,.33,.75,.4l-1.17,3.17c-.62-.36-1.39-.67-2.3-.95-.91-.26-1.88-.38-2.88-.38" fill="#231f20"></path><path d="M38.86,41.39c-.31-.11-.73-.2-1.28-.33-.55-.11-1.18-.16-1.9-.16-.4,0-.84,.04-1.31,.13-.46,.07-.78,.16-.97,.22v12.9h-3.72v-15.33c.71-.27,1.62-.51,2.7-.75s2.28-.35,3.59-.35c.26,0,.53,0,.86,.05,.33,.04,.66,.07,.98,.13s.64,.11,.95,.18,.55,.15,.75,.2l-.64,3.13-.02-.04Z" fill="#231f20"></path><path d="M46.52,51.52c1.15,0,2.02-.05,2.61-.18v-4.12c-.2-.05-.49-.13-.89-.18-.38-.05-.82-.09-1.29-.09-.42,0-.82,.04-1.24,.09-.42,.05-.8,.18-1.13,.35-.35,.16-.62,.4-.82,.69s-.31,.67-.31,1.13c0,.87,.27,1.49,.84,1.84,.55,.35,1.31,.51,2.24,.51m-.31-13.89c1.24,0,2.26,.15,3.12,.46,.84,.31,1.51,.75,2.02,1.29s.86,1.22,1.08,2.02c.22,.78,.33,1.66,.33,2.61v9.75c-.58,.13-1.44,.27-2.61,.44-1.17,.18-2.46,.26-3.92,.26-.97,0-1.84-.09-2.64-.27s-1.48-.47-2.04-.89c-.56-.4-1-.95-1.33-1.6-.33-.66-.47-1.48-.47-2.44s.18-1.69,.55-2.33c.36-.64,.86-1.15,1.46-1.55,.62-.4,1.33-.69,2.13-.86,.82-.18,1.66-.26,2.53-.26,.4,0,.84,.02,1.29,.07s.93,.15,1.44,.26v-.62c0-.44-.05-.84-.15-1.24-.11-.38-.27-.73-.55-1.04-.26-.29-.6-.53-1.02-.69-.42-.16-.95-.26-1.59-.26-.86,0-1.66,.05-2.37,.18s-1.31,.27-1.75,.44l-.46-3.01c.47-.16,1.17-.33,2.06-.49,.91-.16,1.86-.26,2.9-.26" fill="#231f20"></path><path d="M55.45,38.56c.71-.2,1.66-.4,2.81-.58,1.15-.18,2.42-.27,3.81-.27,1.31,0,2.41,.18,3.3,.55,.87,.36,1.59,.86,2.11,1.51,.53,.64,.89,1.42,1.11,2.33s.33,1.91,.33,3.01v9.06h-3.72v-8.46c0-.86-.05-1.6-.16-2.21-.11-.6-.29-1.09-.55-1.48s-.6-.66-1.04-.84c-.44-.16-.98-.26-1.62-.26-.47,0-.97,.04-1.48,.09-.51,.05-.89,.11-1.13,.16v12.99h-3.72v-15.58l-.05-.04Z" fill="#231f20"></path><path d="M74.99,46.05c0,1.64,.38,2.93,1.17,3.86,.78,.93,1.86,1.4,3.23,1.4,.6,0,1.11-.02,1.53-.07s.77-.11,1.04-.16v-9.24c-.33-.22-.77-.44-1.31-.64-.55-.2-1.13-.29-1.73-.29-1.35,0-2.35,.46-2.97,1.39s-.93,2.17-.93,3.75m10.68,7.6c-.75,.22-1.68,.44-2.79,.62s-2.3,.27-3.52,.27-2.41-.2-3.43-.58c-1-.38-1.86-.95-2.57-1.68s-1.26-1.6-1.64-2.64c-.38-1.04-.56-2.21-.56-3.5s.16-2.42,.47-3.46,.78-1.93,1.4-2.66c.62-.75,1.37-1.31,2.24-1.71,.87-.4,1.9-.6,3.04-.6,.78,0,1.46,.09,2.06,.27s1.11,.38,1.53,.62v-7.73l3.72-.62v23.38l.04,.02Z" fill="#231f20"></path><path d="M101.1,35.96c-.82,0-1.59,.04-2.28,.09v6.89h1.69c.95,0,1.77-.05,2.5-.16,.71-.11,1.31-.29,1.8-.55,.49-.27,.84-.62,1.09-1.08,.24-.46,.36-1.02,.36-1.73,0-.66-.13-1.2-.36-1.66-.26-.46-.6-.8-1.06-1.08s-1.02-.46-1.64-.56c-.64-.11-1.33-.16-2.1-.16m-.27-3.35c3.08,0,5.43,.56,7.07,1.69s2.44,2.86,2.44,5.18c0,2.9-1.42,4.85-4.28,5.89,.38,.47,.84,1.04,1.33,1.73,.49,.67,1,1.4,1.51,2.21,.51,.78,1,1.6,1.48,2.42,.47,.84,.89,1.64,1.26,2.44h-4.34c-.38-.73-.8-1.48-1.26-2.22s-.91-1.48-1.37-2.19c-.46-.71-.91-1.39-1.37-2s-.87-1.18-1.26-1.68c-.29,.02-.53,.04-.75,.04h-2.46v8.06h-3.88v-21.01c.95-.2,1.95-.35,3.01-.42,1.08-.07,2.02-.11,2.86-.11" fill="#231f20"></path><path d="M117.41,54.15h-3.72v-16.09h3.72v16.09Zm.4-20.81c0,.69-.22,1.26-.67,1.66-.46,.42-.98,.62-1.6,.62s-1.18-.2-1.64-.62-.67-.97-.67-1.66,.22-1.28,.67-1.69,1-.62,1.64-.62,1.15,.2,1.6,.62,.67,.97,.67,1.69" fill="#231f20"></path><path d="M125.54,54.15c-1.04-2.11-2.1-4.54-3.17-7.27s-2.06-5.69-2.95-8.82h3.97c.22,.91,.49,1.88,.78,2.92s.62,2.08,.97,3.12,.69,2.04,1.06,3.03,.69,1.86,1,2.62c.31-.78,.64-1.66,.98-2.62s.69-1.99,1.04-3.03,.66-2.08,.97-3.12,.58-2,.8-2.92h3.85c-.89,3.13-1.88,6.09-2.95,8.82-1.08,2.73-2.13,5.16-3.17,7.27h-3.17Z" fill="#231f20"></path><path d="M146.36,44.51c0-.51-.07-1-.22-1.46s-.35-.86-.64-1.2c-.27-.35-.62-.6-1.02-.8s-.87-.29-1.44-.29-1.08,.11-1.51,.33c-.44,.22-.8,.49-1.09,.84-.29,.35-.53,.75-.69,1.2s-.27,.91-.35,1.39h6.96Zm-10.81,1.66c0-1.42,.2-2.66,.64-3.72,.42-1.08,.98-1.95,1.68-2.66s1.49-1.24,2.41-1.6c.89-.36,1.82-.55,2.77-.55,2.22,0,3.94,.69,5.19,2.06,1.24,1.37,1.86,3.43,1.86,6.16v.69c0,.26-.02,.49-.05,.69h-10.63c.11,1.29,.56,2.3,1.37,3.01s1.99,1.06,3.52,1.06c.91,0,1.73-.09,2.48-.26s1.33-.35,1.77-.53l.49,3.04c-.2,.11-.49,.22-.84,.33s-.77,.22-1.24,.31c-.46,.09-.97,.16-1.49,.24-.53,.05-1.08,.09-1.62,.09-1.42,0-2.64-.22-3.7-.64-1.04-.42-1.91-1-2.59-1.75-.67-.75-1.18-1.64-1.51-2.64-.33-1.02-.49-2.13-.49-3.34" fill="#231f20"></path><path d="M161.96,41.39c-.31-.11-.73-.2-1.28-.33-.55-.11-1.17-.16-1.9-.16-.4,0-.84,.04-1.31,.13-.46,.07-.78,.16-.97,.22v12.9h-3.72v-15.33c.71-.27,1.62-.51,2.7-.75,1.08-.24,2.28-.35,3.59-.35,.26,0,.53,0,.86,.05,.33,.04,.66,.07,.98,.13s.64,.11,.95,.18,.55,.15,.75,.2l-.64,3.13-.02-.04Z" fill="#231f20"></path></g></svg> 