<?xml version="1.0" encoding="utf-8"?>
<!-- Generator: Adobe Illustrator 24.3.0, SVG Export Plug-In . SVG Version: 6.00 Build 0)  -->
<!DOCTYPE svg PUBLIC "-//W3C//DTD SVG 1.1//EN" "http://www.w3.org/Graphics/SVG/1.1/DTD/svg11.dtd" [
	<!ENTITY ns_extend "http://ns.adobe.com/Extensibility/1.0/">
	<!ENTITY ns_ai "http://ns.adobe.com/AdobeIllustrator/10.0/">
	<!ENTITY ns_graphs "http://ns.adobe.com/Graphs/1.0/">
	<!ENTITY ns_vars "http://ns.adobe.com/Variables/1.0/">
	<!ENTITY ns_imrep "http://ns.adobe.com/ImageReplacement/1.0/">
	<!ENTITY ns_sfw "http://ns.adobe.com/SaveForWeb/1.0/">
	<!ENTITY ns_custom "http://ns.adobe.com/GenericCustomNamespace/1.0/">
	<!ENTITY ns_adobe_xpath "http://ns.adobe.com/XPath/1.0/">
]>
<svg version="1.1" id="Layer_1" xmlns:x="&ns_extend;" xmlns:i="&ns_ai;" xmlns:graph="&ns_graphs;"
	 xmlns="http://www.w3.org/2000/svg" xmlns:xlink="http://www.w3.org/1999/xlink" x="0px" y="0px" width="19px" height="19px"
	 viewBox="0 0 19 19" style="enable-background:new 0 0 19 19;" xml:space="preserve">
<style type="text/css">
	.st0{fill:#FFFFFF;}
</style>
<metadata>
	<sfw  xmlns="&ns_sfw;">
		<slices></slices>
		<sliceSourceBounds  bottomLeftOrigin="true" height="19" width="19" x="0" y="-19"></sliceSourceBounds>
	</sfw>
</metadata>
<g>
	<path class="st0" d="M9.5,1.7c2.5,0,2.8,0,3.8,0.1c0.9,0,1.4,0.2,1.8,0.3c0.4,0.2,0.8,0.4,1.1,0.7c0.3,0.3,0.5,0.6,0.7,1.1
		c0.1,0.3,0.3,0.8,0.3,1.8c0,1,0.1,1.3,0.1,3.8s0,2.8-0.1,3.8c0,0.9-0.2,1.4-0.3,1.8c-0.2,0.4-0.4,0.8-0.7,1.1
		c-0.3,0.3-0.6,0.5-1.1,0.7c-0.3,0.1-0.8,0.3-1.8,0.3c-1,0-1.3,0.1-3.8,0.1s-2.8,0-3.8-0.1c-0.9,0-1.4-0.2-1.8-0.3
		c-0.4-0.2-0.8-0.4-1.1-0.7c-0.3-0.3-0.5-0.6-0.7-1.1c-0.1-0.3-0.3-0.8-0.3-1.8c0-1-0.1-1.3-0.1-3.8s0-2.8,0.1-3.8
		c0-0.9,0.2-1.4,0.3-1.8c0.2-0.4,0.4-0.8,0.7-1.1c0.3-0.3,0.6-0.5,1.1-0.7C4.2,2,4.7,1.8,5.7,1.8C6.7,1.7,7,1.7,9.5,1.7 M9.5,0
		C6.9,0,6.6,0,5.6,0.1c-1,0-1.7,0.2-2.3,0.4C2.7,0.7,2.1,1.1,1.6,1.6C1.1,2.1,0.7,2.7,0.5,3.3C0.3,3.9,0.1,4.6,0.1,5.6
		C0,6.6,0,6.9,0,9.5c0,2.6,0,2.9,0.1,3.9c0,1,0.2,1.7,0.4,2.3c0.2,0.6,0.6,1.2,1.1,1.7c0.5,0.5,1.1,0.9,1.7,1.1
		c0.6,0.2,1.3,0.4,2.3,0.4c1,0,1.3,0.1,3.9,0.1s2.9,0,3.9-0.1c1,0,1.7-0.2,2.3-0.4c0.6-0.2,1.2-0.6,1.7-1.1c0.5-0.5,0.9-1.1,1.1-1.7
		c0.2-0.6,0.4-1.3,0.4-2.3c0-1,0.1-1.3,0.1-3.9s0-2.9-0.1-3.9c0-1-0.2-1.7-0.4-2.3c-0.2-0.6-0.6-1.2-1.1-1.7
		c-0.5-0.5-1.1-0.9-1.7-1.1c-0.6-0.2-1.3-0.4-2.3-0.4C12.4,0,12.1,0,9.5,0L9.5,0z"/>
	<path class="st0" d="M9.5,4.6c-2.7,0-4.9,2.2-4.9,4.9s2.2,4.9,4.9,4.9s4.9-2.2,4.9-4.9S12.2,4.6,9.5,4.6z M9.5,12.7
		c-1.7,0-3.2-1.4-3.2-3.2c0-1.7,1.4-3.2,3.2-3.2c1.7,0,3.2,1.4,3.2,3.2C12.7,11.2,11.2,12.7,9.5,12.7z"/>
	<circle class="st0" cx="14.6" cy="4.4" r="1.1"/>
</g>
</svg>
