<?xml version="1.0" encoding="utf-8"?>
<!-- Generator: Adobe Illustrator 23.0.3, SVG Export Plug-In . SVG Version: 6.00 Build 0)  -->
<svg version="1.1" id="Layer_1" xmlns="http://www.w3.org/2000/svg" xmlns:xlink="http://www.w3.org/1999/xlink" x="0px" y="0px"
	 width="19px" height="19px" viewBox="0 0 19 19" style="enable-background:new 0 0 19 19;" xml:space="preserve">
<style type="text/css">
	.st0{fill:#FFFFFF;}
</style>
<g id="Group_76" transform="translate(0)">
	<path id="Path_47" class="st0" d="M4.7,2.3c0,1.2-1.1,2.2-2.3,2.2S0.2,3.4,0.2,2.2C0.2,1,1.2,0,2.4,0C3.7,0,4.7,1,4.7,2.3"/>
	<rect id="Rectangle_31" x="0.5" y="6.3" class="st0" width="3.9" height="12.7"/>
	<path id="Path_48" class="st0" d="M6.8,19h3.8v-6.5c0,0-0.1-3,2.2-3s2.1,2.2,2.1,3V19h3.9v-6.9c0,0,0.2-5-2.6-5.8s-4.7,0.1-5.7,1.8
		V6.3H6.8V19z"/>
</g>
</svg>
