<?xml version="1.0" encoding="UTF-8"?> <svg xmlns="http://www.w3.org/2000/svg" id="a" width="236.77" height="31.07" viewBox="0 0 236.77 31.07"><path d="M4.68,22.04c-.35-.19-.71-.41-1.08-.64h0c.37-.24,.73-.45,1.08-.65,.18-.09,.35-.19,.51-.28,.68-.35,1.29-.63,1.91-.83,.53-.18,1.04-.3,1.52-.38,.14-.02,.27-.04,.4-.05,.07,0,.13-.01,.2-.01,.13,0,.26-.01,.39-.01,.38,0,.75,.03,1.11,.1-.36-.07-.72-.17-1.08-.31-.12-.05-.24-.1-.36-.15-.06-.03-.12-.06-.18-.09-.24-.12-.47-.25-.71-.41-.77-.5-1.59-1.21-2.4-2.15-.12-.15-.24-.29-.37-.45-.25-.31-.5-.64-.76-.99h0c.43-.09,.82-.17,1.22-.22,.2-.02,.4-.05,.59-.07,.77-.09,1.46-.11,2.09-.09,.54,.02,1.08,.09,1.55,.2,.14,.03,.27,.06,.4,.1,.07,.02,.13,.04,.19,.06,.12,.04,.25,.08,.37,.13,.36,.14,.69,.31,1,.5-.31-.19-.61-.42-.9-.68-.09-.09-.19-.18-.28-.27-.05-.05-.09-.1-.14-.15-.18-.2-.36-.41-.53-.65-.54-.75-1.02-1.69-1.46-2.87-.07-.18-.13-.36-.19-.55-.12-.37-.24-.77-.35-1.19h0c.43,.07,.83,.15,1.21,.24,.19,.04,.38,.09,.57,.14,.75,.2,1.41,.43,1.99,.68,.5,.22,.96,.46,1.37,.74,.12,.08,.23,.16,.34,.24l.16,.12c.1,.08,.2,.17,.3,.25,.28,.26,.54,.53,.76,.83-.22-.29-.42-.61-.59-.95-.06-.11-.11-.23-.16-.35-.03-.06-.05-.12-.07-.18-.1-.25-.19-.51-.26-.79-.25-.92-.34-1.94-.33-3.2,0-.19,.01-.39,.02-.59,.02-.4,.06-.8,.1-1.23h0c.37,.22,.72,.45,1.05,.66,.16,.11,.32,.22,.48,.33,.62,.45,1.16,.91,1.61,1.36,.4,.39,.73,.78,1.01,1.17,.08,.11,.16,.23,.22,.34,.04,.06,.07,.11,.1,.17,.07,.11,.13,.23,.19,.34,.17,.35,.31,.7,.41,1.05-.1-.35-.17-.72-.2-1.1-.01-.13-.02-.26-.02-.39,0-.07,0-.13,0-.2,0-.27,.01-.54,.05-.83,.05-.46,.15-.96,.29-1.48,.14-.51,.33-1.05,.57-1.62,.08-.18,.15-.35,.23-.54,.16-.36,.34-.76,.54-1.13h0c.26,.35,.51,.69,.74,1.02,.11,.16,.22,.33,.33,.49,.41,.63,.75,1.24,1,1.83,.09,.21,.17,.41,.25,.62V0H8.23V8.23H0v14.42H5.86c-.22-.1-.43-.21-.66-.32-.17-.09-.34-.18-.51-.28" fill="#231f20"></path><g><path d="M22.66,22.76h8.13V10.22c-.63-.07-1.27-.1-1.92-.1-10.01,0-18.13,8.12-18.13,18.13,0,.9,.07,1.78,.2,2.65h11.72v-8.13Z" fill="#231f20"></path><polygon points="38.06 1.92 44.37 1.92 44.37 24.85 58.66 24.85 58.66 30.58 38.06 30.58 38.06 1.92" fill="#231f20"></polygon><polygon points="61.17 1.92 67.96 1.92 75.5 14.04 83.03 1.92 89.83 1.92 89.83 30.58 83.56 30.58 83.56 11.87 75.5 24.11 75.34 24.11 67.35 11.99 67.35 30.58 61.17 30.58 61.17 1.92" fill="#231f20"></polygon><polygon points="92.83 1.92 99.14 1.92 99.14 13.26 110.77 13.26 110.77 1.92 117.07 1.92 117.07 30.58 110.77 30.58 110.77 19.07 99.14 19.07 99.14 30.58 92.83 30.58 92.83 1.92" fill="#231f20"></polygon><polygon points="123.75 1.92 126.98 1.92 126.98 14.65 143.52 14.65 143.52 1.92 146.76 1.92 146.76 30.58 143.52 30.58 143.52 17.68 126.98 17.68 126.98 30.58 123.75 30.58 123.75 1.92" fill="#231f20"></polygon><path d="M150.27,20.06v-.08c0-6.1,4.3-11.01,10.15-11.01,6.26,0,9.87,4.99,9.87,11.18,0,.41,0,.66-.04,1.02h-16.79c.45,4.59,3.68,7.16,7.45,7.16,2.91,0,4.95-1.19,6.67-2.99l1.97,1.76c-2.13,2.37-4.71,3.97-8.72,3.97-5.81,0-10.56-4.46-10.56-11.01m16.83-1.23c-.33-3.85-2.54-7.21-6.75-7.21-3.69,0-6.47,3.07-6.88,7.21h13.63Z" fill="#231f20"></path><path d="M172.57,24.44v-.08c0-4.46,3.68-6.84,9.05-6.84,2.7,0,4.63,.37,6.51,.9v-.74c0-3.81-2.33-5.77-6.31-5.77-2.5,0-4.46,.65-6.43,1.56l-.94-2.58c2.33-1.06,4.63-1.76,7.7-1.76s5.28,.78,6.84,2.33c1.43,1.43,2.17,3.48,2.17,6.18v12.94h-3.03v-3.19c-1.47,1.92-3.93,3.64-7.66,3.64-3.93,0-7.9-2.25-7.9-6.59m15.6-1.64v-2.05c-1.56-.45-3.64-.9-6.22-.9-3.97,0-6.18,1.72-6.18,4.38v.08c0,2.66,2.46,4.22,5.32,4.22,3.89,0,7.08-2.37,7.08-5.73" fill="#231f20"></path><rect x="195.18" y=".69" width="3.15" height="29.89" fill="#231f20"></rect><path d="M204.46,24.97V12.19h-2.95v-2.78h2.95V3.03h3.15v6.39h6.71v2.78h-6.71v12.37c0,2.58,1.43,3.52,3.56,3.52,1.06,0,1.97-.2,3.07-.74v2.7c-1.1,.57-2.29,.9-3.81,.9-3.4,0-5.98-1.68-5.98-5.98" fill="#231f20"></path><path d="M218.26,.69h3.15V13.1c1.39-2.29,3.6-4.13,7.25-4.13,5.12,0,8.11,3.44,8.11,8.47v13.14h-3.15v-12.36c0-3.93-2.13-6.39-5.86-6.39s-6.35,2.66-6.35,6.63v12.12h-3.15V.69Z" fill="#231f20"></path></g></svg> 