<?xml version="1.0" encoding="UTF-8"?> <svg xmlns="http://www.w3.org/2000/svg" id="a" width="156.98" height="37.5" viewBox="0 0 156.98 37.5"><g id="b"><g id="c"><path id="d" d="M56.94,18.78c-.31,0-.56-.12-.69-.37l-6.18-13.42,.12,15.85c0,.56-.25,.81-.75,.81h-.25c-.5,0-.75-.25-.75-.81V3.55c0-.5,.25-.75,.75-.75h1.06c.31,0,.56,.12,.69,.44l6.18,13.48,6.18-13.48c.12-.25,.37-.44,.69-.44h1.06c.5,0,.75,.25,.75,.81V20.9c0,.56-.25,.81-.75,.81h-.19c-.5,0-.75-.25-.75-.81l.12-15.85-6.18,13.35c-.12,.25-.37,.44-.69,.37h-.44Z" fill="#231f20"></path><path id="e" d="M76.29,21.9c-1.31,.06-2.56-.25-3.68-.81-.87-.5-1.62-1.25-2.12-2.18-.5-.94-.87-2-1-3.12-.31-2.37-.31-4.8,0-7.18,.12-1.06,.5-2.12,1-3.12,.5-.94,1.25-1.68,2.12-2.18,2.37-1.06,5.05-1.06,7.43,0,.87,.5,1.62,1.25,2.12,2.18,.5,1,.87,2,1,3.12,.31,2.37,.31,4.8,0,7.18-.12,1.06-.44,2.12-1,3.12-.5,.94-1.25,1.68-2.12,2.18-1.19,.62-2.5,.87-3.74,.81Zm0-1.56c.94,.06,1.93-.19,2.75-.62,.69-.44,1.25-1,1.56-1.75,.37-.81,.62-1.68,.75-2.56,.25-2.12,.25-4.24,0-6.36-.06-.87-.31-1.75-.75-2.56-.37-.69-.87-1.31-1.56-1.75-1.75-.81-3.74-.81-5.49,0-.69,.44-1.25,1-1.56,1.75-.37,.81-.62,1.68-.75,2.56-.25,2.12-.25,4.24,0,6.36,.06,.87,.31,1.75,.75,2.56,.37,.69,.87,1.31,1.56,1.75,.81,.44,1.81,.69,2.75,.62h0Z" fill="#231f20"></path><path id="f" d="M98.19,18.16l-.06-14.6c0-.56,.25-.81,.75-.81h.19c.5,0,.75,.25,.75,.81V20.84c0,.56-.25,.81-.75,.81h-.12c-.12,0-.25,0-.37-.06s-.19-.19-.25-.25l-9.92-15.04,.06,14.6c0,.56-.25,.81-.75,.81h-.19c-.5,0-.75-.25-.75-.81V3.55c0-.56,.25-.81,.75-.81h.12c.12,0,.25,0,.37,.06s.19,.19,.25,.25l9.92,15.1Z" fill="#231f20"></path><path id="g" d="M114.1,2.81c.37-.06,.69,.19,.75,.56v.31c.06,.37-.19,.69-.56,.75h-4.62V20.9c0,.56-.25,.81-.75,.81h-.19c-.5,0-.75-.25-.75-.81V4.37h-4.43c-.37,.06-.69-.19-.75-.56v-.31c-.06-.37,.19-.69,.56-.75h.19l10.55,.06Z" fill="#231f20"></path><path id="h" d="M124.09,14.91l-3.24-9.48-3.31,9.48-.5,1.5-1.56,4.62c-.06,.19-.19,.31-.31,.5-.19,.12-.37,.25-.56,.19h-.5c-.19,0-.37-.06-.44-.19-.12-.19-.12-.44-.06-.62l6.43-17.66c.06-.19,.12-.37,.25-.5,.12-.12,.31-.19,.5-.12h.12c.19,0,.37,.06,.5,.12,.12,.12,.25,.31,.25,.5l6.43,17.66c.12,.19,.12,.44-.06,.62-.12,.12-.31,.19-.44,.19h-.5c-.19,0-.44-.06-.56-.19-.12-.12-.25-.31-.31-.5l-1.56-4.62" fill="#231f20"></path><path id="i" d="M141.5,11.73c.5,0,.75,.25,.75,.81v7.8c0,.19-.06,.31-.12,.44-.12,.19-.31,.31-.5,.37-.62,.19-1.25,.37-1.87,.5-1.06,.19-2.12,.31-3.24,.25-1.25,.06-2.43-.19-3.56-.75-.94-.5-1.75-1.19-2.31-2.06-.62-.94-1-2-1.25-3.06-.5-2.5-.5-5.05,0-7.55,.19-1.12,.62-2.12,1.25-3.06,.56-.87,1.37-1.62,2.31-2.06,1.12-.56,2.31-.81,3.56-.75,1,0,1.93,.06,2.93,.25,.56,.12,1.19,.31,1.75,.5,.19,.06,.37,.19,.5,.37,.06,.12,.12,.31,.12,.44v.44c0,.19-.06,.31-.19,.44s-.31,.12-.56,0c-.62-.25-1.25-.44-1.87-.56-.87-.19-1.75-.31-2.68-.31s-1.81,.19-2.62,.62c-.69,.44-1.31,1-1.75,1.75-.44,.81-.81,1.68-.94,2.56-.37,2.12-.37,4.24,0,6.36,.19,.87,.5,1.75,.94,2.56,.44,.69,1,1.31,1.75,1.75,.81,.44,1.68,.69,2.62,.62h1.12c.37,0,.75-.06,1.12-.06,.37-.06,.69-.12,1.06-.19,.25-.06,.56-.12,.81-.25v-6.55h-3.18c-.5,0-.75-.25-.75-.75v-.12c0-.5,.25-.75,.75-.75h4.06Z" fill="#231f20"></path><path id="j" d="M147.74,11.04h7.61c.5,0,.75,.25,.75,.75v.12c0,.5-.25,.75-.75,.75h-7.61v7.43h8.49c.37-.06,.69,.19,.75,.56v.31c.06,.37-.19,.69-.56,.75h-9.61c-.5,0-.75-.25-.75-.81V3.55c0-.56,.25-.81,.75-.81h9.42c.37-.06,.69,.19,.75,.56v.31c.06,.37-.19,.69-.56,.75h-8.67v6.68Z" fill="#231f20"></path></g><g id="k"><g id="l"><path id="m" d="M56.23,30.58h-6.93v6.05c0,.37-.19,.56-.56,.56h-.12c-.37,0-.56-.19-.56-.56v-12.67c0-.37,.19-.56,.56-.56h.12c.37,0,.56,.19,.56,.56v5.49h6.93v-5.49c0-.37,.19-.56,.56-.56h.12c.37,0,.56,.19,.56,.56v12.67c0,.37-.19,.56-.56,.56h-.12c-.37,0-.56-.19-.56-.56,0,0,0-6.05,0-6.05Z" fill="#231f20"></path><path id="n" d="M63.28,37.44c-.69,0-1.31-.12-1.93-.37-.5-.25-.87-.56-1.19-1s-.5-1-.62-1.5c-.25-1.25-.25-2.5,0-3.74,.12-.56,.31-1.06,.62-1.5s.69-.81,1.19-1c.62-.25,1.25-.37,1.93-.37,.62,0,1.31,.12,1.87,.37,.44,.25,.81,.56,1.06,1,.25,.5,.44,1,.5,1.5,.06,.62,.12,1.25,.12,1.87,0,.37-.19,.56-.56,.56h-5.55c0,.37,.06,.81,.12,1.19s.19,.69,.37,1c.19,.31,.44,.5,.75,.69,.37,.19,.81,.25,1.25,.25,.56,0,1.06,0,1.62-.12,.31-.06,.62-.12,.94-.25,.12-.06,.31-.06,.44,0,.06,.06,.12,.19,.12,.31v.31c0,.12,0,.19-.06,.25-.06,.12-.19,.19-.31,.25-.37,.12-.75,.25-1.12,.31-.5-.06-1,0-1.56,0Zm0-8.49c-.44,0-.87,.06-1.31,.25-.31,.19-.56,.44-.75,.69-.19,.31-.31,.69-.37,1-.06,.37-.12,.81-.12,1.19h4.8c0-.44,0-.81-.06-1.19,0-.37-.12-.69-.25-1-.12-.31-.37-.56-.69-.69-.37-.19-.81-.25-1.25-.25Z" fill="#231f20"></path><path id="o" d="M71.83,28.95c-.44,0-.94,0-1.37,.12-.25,.06-.56,.12-.81,.19-.19,.06-.37,.06-.5-.06-.12-.06-.19-.19-.19-.31v-.19c0-.12,0-.19,.06-.31s.19-.19,.31-.25c.31-.12,.69-.19,1.06-.25,.5-.06,.94-.12,1.44-.12,.56,0,1.19,.06,1.68,.25,.37,.12,.75,.31,1.06,.62,.25,.25,.44,.62,.56,1,.12,.44,.19,.81,.19,1.25v5.87c0,.31-.12,.44-.37,.44h-.06c-.12,0-.19,0-.31-.12-.06-.12-.12-.25-.19-.31l-.12-.31c-.44,.31-.87,.56-1.37,.69-.44,.12-.94,.25-1.44,.25s-1.06-.06-1.5-.25c-.37-.12-.75-.37-1-.69-.25-.25-.44-.56-.56-.94s-.19-.75-.19-1.12,.06-.75,.19-1.06,.31-.62,.56-.87c.31-.25,.62-.5,1-.62,.5-.19,1-.25,1.56-.31l2.43-.12v-.5c0-.31,0-.56-.12-.87-.06-.25-.19-.44-.37-.62s-.44-.31-.69-.37c-.25-.06-.62-.06-.94-.06Zm-.37,3.62c-.56,0-1.06,.19-1.44,.56-.31,.37-.44,.81-.44,1.31,0,.19,0,.44,.06,.62s.12,.44,.25,.56c.12,.19,.37,.37,.56,.44,.31,.12,.69,.19,1.06,.19,.44,0,.87-.06,1.31-.19,.37-.12,.81-.31,1.12-.56v-3.24l-2.5,.31Z" fill="#231f20"></path><path id="p" d="M78.82,35.82c0,.12,0,.25,.06,.37,.06,.06,.19,.12,.31,.12,.31,.06,.44,.19,.44,.44v.12c0,.31-.19,.44-.5,.44-.44,.06-.94-.12-1.25-.44-.25-.31-.37-.69-.37-1.06v-11.86c0-.37,.19-.56,.56-.56h.12c.37,0,.56,.19,.56,.56v11.86h.06Z" fill="#231f20"></path><path id="q" d="M80.69,29.02c-.12,0-.19,0-.25-.06-.06-.06-.12-.12-.12-.25s0-.19,.12-.25c.06-.12,.19-.12,.25-.19l1.5-.37v-2.18c0-.25,.12-.44,.37-.5l.37-.06c.12-.06,.31-.06,.44,.06,.12,.06,.19,.19,.19,.31v2.5h2.37c.31,0,.5,.19,.5,.5v.06c0,.31-.19,.5-.5,.5h-2.37v5.74c-.06,.44,.12,.87,.44,1.25,.37,.25,.87,.37,1.31,.37h.31c.12,0,.25,.06,.31,.12s.12,.19,.12,.31v.19c0,.25-.12,.44-.44,.44h-.44c-.37,0-.75-.06-1.12-.12-.31-.06-.69-.25-.94-.44-.25-.19-.5-.5-.69-.75-.19-.37-.25-.75-.25-1.19v-5.87h-1.5v-.12Z" fill="#231f20"></path><path id="r" d="M87.68,23.96c0-.37,.19-.56,.56-.56h.19c.37,0,.56,.19,.56,.56v4.62c.75-.5,1.62-.75,2.5-.75,.87-.06,1.75,.19,2.37,.75,.5,.56,.81,1.31,.75,2.06v6.05c0,.37-.19,.56-.56,.56h-.19c-.37,0-.56-.19-.56-.56v-6.12c.06-.5-.12-.94-.5-1.25-.44-.25-.87-.37-1.37-.31-.5,0-1,.06-1.44,.19-.37,.12-.69,.25-1.06,.44v7.11c0,.37-.19,.56-.56,.56h-.19c-.37,0-.56-.19-.56-.56l.06-12.79Z" fill="#231f20"></path></g></g><g id="s"><g id="t"><path id="u" d="M42.13,34.83c.06,0,.12,0,.12,.12h0c0,.06-.06,.12-.12,.12h-.62v2.12c0,.06-.06,.12-.12,.12h0c-.06-.06-.06-.12-.06-.19v-2.12h-.56q-.06,0-.12-.06h0q0-.06,.06-.12h0s1.44,0,1.44,0Z" fill="#231f20"></path><path id="v" d="M43.69,36.89q-.06,0-.06-.06l-.87-1.75v2.06c0,.06-.06,.12-.12,.12h0s-.06-.06-.06-.12v-2.25c0-.06,.06-.12,.12-.12h.12q.06,0,.06,.06l.81,1.75,.81-1.75c0-.06,.06-.06,.06-.06h.12c.06,0,.12,.06,.12,.12v2.25c0,.06-.06,.12-.12,.12h0c-.06,0-.06-.06-.06-.12v-2.06l-.81,1.75s-.06,.06-.12,.06h0Z" fill="#231f20"></path></g><g id="w"><path id="x" d="M39.06,7.3h-2.43V2.43H19.53V0h19.53s0,7.3,0,7.3Z" fill="#231f20"></path><path id="y" d="M2.43,7.3H0V0H19.53V2.43H2.43V7.3Z" fill="#231f20"></path><path id="z" d="M19.53,37.25H0v-7.36H2.43v4.87H19.53v2.5Z" fill="#231f20"></path><path id="aa" d="M39.06,37.25H19.53v-2.5h17.1v-4.87h2.43v7.36Z" fill="#231f20"></path><rect id="ab" x="36.63" y="7.3" width="2.43" height="22.59" fill="#231f20"></rect><rect id="ac" x="4.8" y="11.29" width="2.56" height="14.66" fill="#231f20"></rect><path id="ad" d="M19.53,32.45H4.8v-7.43h2.56v4.87h12.23l-.06,2.56Z" fill="#231f20"></path><path id="ae" d="M34.19,32.45h-14.66v-2.56h12.23v-4.87h2.43v7.43Z" fill="#231f20"></path><rect id="af" x="31.7" y="11.29" width="2.43" height="14.66" fill="#231f20"></rect><path id="ag" d="M34.19,12.17h-2.43V7.3h-12.23v-2.43h14.66v7.3Z" fill="#231f20"></path><path id="ah" d="M7.3,12.17h-2.5V4.87h14.73v2.43H7.3v4.87Z" fill="#231f20"></path><rect id="ai" x="26.83" y="13.73" width="2.43" height="9.73" fill="#231f20"></rect><path id="aj" d="M29.27,14.1h-2.43v-2.43h-7.3v-2.43h9.73s0,4.87,0,4.87Z" fill="#231f20"></path><path id="ak" d="M12.23,14.1h-2.43v-4.87h9.73v2.43h-7.3v2.43Z" fill="#231f20"></path><rect id="al" x="9.73" y="13.73" width="2.43" height="9.73" fill="#231f20"></rect><path id="am" d="M19.53,27.95H9.73v-4.87h2.43v2.43h7.3l.06,2.43Z" fill="#231f20"></path><path id="an" d="M29.27,27.95h-9.73v-2.43h7.3v-2.43h2.43v4.87Z" fill="#231f20"></path><rect id="ao" y="7.3" width="2.43" height="22.59" fill="#231f20"></rect></g></g></g></svg> 