<?xml version="1.0" encoding="UTF-8"?> <svg xmlns="http://www.w3.org/2000/svg" id="a" width="166.09" height="74.13" viewBox="0 0 166.09 74.13"><path d="M43.96,14.91h8.18c1.38,0,2.5,.37,3.34,1.12,.84,.74,1.27,1.65,1.27,2.73,0,.82-.25,1.53-.73,2.15-.49,.62-1.14,1.06-1.96,1.34-.82,.28-1.64,.42-2.44,.42h-2.59v4.55c0,.25,.07,.45,.22,.59,.15,.14,.33,.21,.56,.21h1.61v.88h-7.45v-.88h1.25c.28,0,.49-.07,.63-.21,.14-.14,.21-.34,.21-.59v-10.65c0-.24-.07-.43-.22-.57-.15-.14-.32-.21-.53-.21h-1.34v-.88Zm5.06,6.89h1.73c.61,0,1.14-.13,1.61-.39,.47-.26,.8-.57,1-.94,.2-.37,.3-.97,.3-1.79,0-1.13-.31-1.93-.92-2.4-.45-.33-1.21-.5-2.29-.5-.63,0-1.02,.05-1.19,.15-.17,.1-.25,.28-.25,.54v5.33Z" fill="#231f20"></path><path d="M65.78,24.52h-6.2c.02,1.24,.27,2.15,.75,2.74,.48,.59,1.1,.88,1.85,.88,.54,0,1.05-.15,1.54-.45,.48-.3,.98-.85,1.49-1.64l.69,.42c-.54,.94-1.15,1.62-1.84,2.03-.69,.41-1.53,.61-2.53,.61-1.45,0-2.62-.44-3.52-1.32-.9-.88-1.34-2.01-1.34-3.39s.45-2.53,1.35-3.46c.9-.93,2.01-1.39,3.32-1.39,.91,0,1.69,.19,2.34,.56,.65,.37,1.16,.91,1.52,1.63,.36,.72,.55,1.64,.57,2.78m-6.2-.86h2.95c.28,0,.47-.07,.59-.21,.12-.14,.18-.39,.18-.76,0-.73-.17-1.3-.5-1.7-.33-.4-.76-.6-1.27-.6-.61,0-1.08,.27-1.4,.81-.32,.54-.51,1.36-.55,2.45" fill="#231f20"></path><path d="M65.76,14.91l4.15-.21v12.58c0,.23,.07,.41,.22,.54,.15,.13,.35,.19,.62,.19h.56v.88h-5.33v-.88h.6c.28,0,.48-.07,.62-.22,.14-.15,.2-.37,.2-.68v-10.34c0-.32-.09-.57-.26-.74-.18-.17-.42-.26-.72-.26h-.66v-.86Z" fill="#231f20"></path><path d="M71.76,14.91l4.15-.21v12.58c0,.23,.07,.41,.22,.54,.15,.13,.35,.19,.62,.19h.56v.88h-5.33v-.88h.6c.28,0,.48-.07,.62-.22,.14-.15,.2-.37,.2-.68v-10.34c0-.32-.09-.57-.26-.74-.18-.17-.42-.26-.72-.26h-.66v-.86Z" fill="#231f20"></path><path d="M88.18,27.79l.4,.68c-.39,.26-.73,.45-1.04,.55-.31,.1-.64,.15-1.01,.15-.54,0-.98-.12-1.31-.35-.33-.23-.64-.66-.92-1.3-.64,.64-1.22,1.07-1.73,1.3-.51,.23-1.09,.35-1.73,.35-.89,0-1.58-.21-2.08-.62-.5-.41-.75-.93-.75-1.56,0-.95,.46-1.71,1.38-2.29,.74-.45,2.35-.91,4.85-1.36v-1.28c0-.5-.17-.92-.5-1.23-.34-.32-.78-.48-1.34-.48-.43,0-.81,.09-1.13,.27-.22,.12-.33,.24-.33,.36,0,.06,.04,.16,.12,.28,.17,.28,.26,.56,.26,.84,0,.35-.12,.64-.35,.85s-.54,.33-.94,.33c-.42,0-.75-.12-1-.35-.25-.24-.38-.54-.38-.91,0-.61,.33-1.15,.99-1.62,.83-.58,1.85-.87,3.08-.87,.93,0,1.75,.15,2.47,.44,.46,.18,.83,.5,1.12,.96,.29,.46,.43,1.02,.43,1.69v4.49c0,.34,.06,.59,.19,.74,.13,.15,.3,.23,.52,.23,.18,0,.42-.1,.72-.29m-3.93-3.62c-1.35,.18-2.26,.46-2.73,.84-.48,.38-.71,.88-.71,1.51,0,.44,.11,.78,.34,1.02,.22,.24,.54,.35,.94,.35,.63,0,1.14-.22,1.55-.67s.62-1.06,.62-1.83v-1.22Z" fill="#231f20"></path><path d="M43.9,31.46h7.29c1.18,0,2.15,.15,2.9,.46,.75,.31,1.3,.72,1.67,1.25,.37,.53,.55,1.11,.55,1.75,0,1.03-.46,1.86-1.38,2.49-.7,.49-1.78,.8-3.23,.94,.73,.12,1.29,.31,1.68,.57,.39,.26,.74,.65,1.04,1.17,.4,.68,.72,1.5,.98,2.45,.16,.61,.3,.99,.42,1.15,.12,.16,.26,.24,.41,.24,.42,0,.66-.55,.74-1.65h.83c-.06,1.17-.33,2.01-.79,2.52-.46,.51-1.11,.76-1.94,.76-.6,0-1.08-.12-1.44-.37-.36-.25-.64-.6-.83-1.08-.11-.27-.27-.91-.47-1.91-.23-1.17-.44-1.96-.63-2.36-.19-.4-.43-.7-.72-.9-.3-.19-.66-.29-1.1-.29h-1.03v5.15c0,.23,.07,.4,.2,.52,.19,.16,.41,.24,.66,.24h1.27v.88h-7.08v-.88h1.1c.28,0,.5-.07,.64-.22,.15-.15,.22-.35,.22-.62v-10.54c0-.29-.07-.5-.2-.64-.13-.14-.32-.2-.57-.2h-1.19v-.88Zm4.95,6.34h1.18c1.04,0,1.87-.27,2.47-.8,.45-.41,.68-1.1,.68-2.07,0-.9-.22-1.55-.67-1.96-.45-.41-1.22-.62-2.32-.62-.59,0-.96,.06-1.12,.19s-.23,.42-.23,.86v4.39Z" fill="#231f20"></path><path d="M68.15,41.07h-6.2c.02,1.24,.27,2.16,.75,2.74,.48,.59,1.1,.88,1.85,.88,.54,0,1.05-.15,1.54-.45,.49-.3,.98-.85,1.49-1.64l.69,.42c-.54,.94-1.15,1.62-1.84,2.03-.69,.41-1.53,.61-2.53,.61-1.45,0-2.62-.44-3.52-1.32-.9-.88-1.34-2.01-1.34-3.39s.45-2.53,1.35-3.46c.9-.93,2.01-1.39,3.32-1.39,.91,0,1.69,.19,2.34,.56,.65,.37,1.16,.91,1.52,1.63,.36,.72,.55,1.64,.57,2.78m-6.2-.86h2.95c.28,0,.47-.07,.59-.21,.12-.14,.18-.39,.18-.76,0-.73-.17-1.3-.5-1.7-.33-.4-.76-.6-1.27-.6-.61,0-1.08,.27-1.4,.81-.32,.54-.51,1.36-.55,2.45" fill="#231f20"></path><path d="M76.23,36.59c.76-.9,1.51-1.35,2.25-1.35,.38,0,.68,.11,.91,.33,.23,.22,.34,.5,.34,.85,0,.31-.09,.55-.26,.74-.17,.19-.39,.28-.66,.28-.37,0-.64-.2-.8-.59-.1-.24-.22-.36-.36-.36-.18,0-.42,.19-.72,.56,.68,.69,1.02,1.41,1.02,2.17,0,.59-.16,1.13-.48,1.61-.32,.48-.81,.86-1.46,1.14-.65,.28-1.47,.43-2.44,.43l-1.01-.02c-.75,0-1.26,.08-1.52,.23-.27,.15-.41,.35-.41,.58,0,.21,.08,.36,.25,.46,.22,.14,.57,.21,1.06,.21l.87-.03c.94-.05,1.63-.08,2.07-.08,1.47,0,2.49,.21,3.06,.63,.57,.42,.86,.99,.86,1.73,0,.88-.33,1.59-.99,2.13-.81,.65-2.21,.98-4.22,.98-1.71,0-2.92-.2-3.61-.6-.69-.4-1.04-.86-1.04-1.4,0-.34,.15-.63,.45-.88,.3-.25,.92-.49,1.88-.71-.62-.13-1.09-.34-1.41-.64-.32-.3-.47-.69-.47-1.17,0-.43,.12-.8,.35-1.11,.24-.3,.66-.57,1.27-.8-.58-.32-1.02-.69-1.31-1.12-.29-.44-.44-.93-.44-1.48,0-.6,.16-1.14,.48-1.62,.32-.48,.81-.87,1.48-1.15,.67-.29,1.48-.43,2.43-.43,.45,0,.89,.04,1.32,.12,.43,.08,.84,.2,1.24,.37m1.08,10.39c0-.37-.21-.64-.62-.81-.28-.12-.91-.18-1.89-.18-1.76,0-2.9,.12-3.41,.36-.51,.24-.77,.54-.77,.9,0,.34,.2,.62,.6,.85,.4,.23,1.15,.35,2.26,.35,1.44,0,2.48-.17,3.12-.5,.48-.26,.72-.58,.72-.96m-3.71-10.05c-.43,0-.81,.2-1.12,.61-.31,.41-.46,.99-.46,1.75s.15,1.3,.46,1.69c.31,.39,.68,.59,1.13,.59s.82-.2,1.13-.61c.32-.4,.47-.97,.47-1.7s-.16-1.31-.47-1.72c-.31-.41-.69-.61-1.14-.61" fill="#231f20"></path><path d="M80.6,36.59l3.93-.18v7.51c0,.2,.06,.36,.19,.47,.13,.11,.33,.16,.59,.16h.6v.88h-5.31v-.88h.59c.32,0,.54-.07,.67-.22,.13-.15,.19-.4,.19-.75v-5.12c0-.32-.09-.57-.28-.75-.19-.17-.44-.26-.77-.26h-.4v-.86Zm2.43-5.1c.42,0,.78,.15,1.09,.45,.3,.3,.45,.66,.45,1.09s-.15,.79-.45,1.09c-.3,.3-.66,.45-1.09,.45s-.79-.15-1.1-.45c-.3-.3-.45-.66-.45-1.09s.15-.79,.45-1.09c.3-.3,.67-.45,1.1-.45" fill="#231f20"></path><path d="M91.36,36.1c.99,0,1.9,.21,2.72,.64,.83,.43,1.44,.99,1.85,1.68,.4,.69,.6,1.52,.6,2.49,0,1.55-.53,2.74-1.58,3.57-1.05,.83-2.25,1.24-3.59,1.24-.94,0-1.81-.21-2.59-.64-.78-.43-1.39-1-1.81-1.72-.42-.72-.63-1.53-.63-2.44,0-1.37,.48-2.51,1.43-3.43s2.15-1.38,3.6-1.38m.06,.9c-.65,0-1.18,.29-1.56,.86-.39,.58-.58,1.59-.58,3.04s.19,2.54,.58,3.11c.38,.57,.9,.85,1.56,.85s1.21-.29,1.62-.88c.41-.59,.62-1.6,.62-3.03s-.2-2.5-.61-3.08c-.4-.58-.94-.87-1.62-.87" fill="#231f20"></path><path d="M108.21,44.56v.88h-5.32v-.88h.56c.3,0,.52-.08,.66-.23,.15-.15,.22-.37,.22-.66v-3.84c0-.65-.15-1.16-.45-1.51-.3-.35-.69-.52-1.17-.52-.66,0-1.19,.25-1.61,.74-.41,.49-.62,1.22-.62,2.17v2.96c0,.29,.07,.51,.22,.66,.15,.15,.34,.23,.57,.23h.67v.88h-5.53v-.88h.72c.28,0,.49-.08,.63-.23,.14-.15,.21-.37,.21-.66v-5.26c0-.3-.1-.54-.31-.72-.2-.18-.47-.27-.81-.27h-.38v-.82l3.7-.2c.13,.54,.23,1.19,.3,1.94,.52-.7,1.06-1.22,1.65-1.57,.58-.35,1.2-.52,1.85-.52,.88,0,1.57,.29,2.08,.88,.5,.59,.75,1.4,.75,2.45v4.1c0,.32,.07,.54,.22,.68,.15,.14,.38,.21,.69,.21h.49Z" fill="#231f20"></path><path d="M118.7,44.34l.4,.68c-.38,.26-.73,.45-1.03,.55-.31,.1-.64,.15-1.01,.15-.54,0-.98-.12-1.31-.35-.33-.23-.64-.66-.92-1.3-.64,.64-1.22,1.07-1.73,1.3-.51,.23-1.09,.35-1.73,.35-.89,0-1.58-.21-2.08-.61-.5-.41-.74-.93-.74-1.56,0-.95,.46-1.71,1.38-2.29,.74-.45,2.35-.91,4.85-1.36v-1.28c0-.5-.17-.92-.5-1.23-.34-.32-.78-.48-1.34-.48-.43,0-.81,.09-1.13,.27-.22,.12-.33,.24-.33,.36,0,.06,.04,.16,.12,.28,.17,.28,.26,.56,.26,.84,0,.35-.12,.64-.35,.85s-.54,.33-.94,.33c-.42,0-.75-.12-1-.35-.25-.24-.38-.54-.38-.91,0-.61,.33-1.15,.99-1.62,.82-.58,1.85-.87,3.08-.87,.93,0,1.75,.15,2.47,.44,.46,.18,.83,.5,1.12,.96,.29,.46,.43,1.02,.43,1.69v4.49c0,.34,.06,.59,.19,.74,.13,.15,.3,.23,.52,.23,.18,0,.42-.1,.72-.29m-3.93-3.62c-1.35,.18-2.26,.46-2.74,.84-.47,.38-.71,.88-.71,1.51,0,.44,.11,.78,.34,1.02,.22,.24,.54,.35,.94,.35,.63,0,1.14-.22,1.55-.67,.41-.45,.62-1.06,.62-1.83v-1.22Z" fill="#231f20"></path><path d="M118.94,31.46l4.15-.21v12.58c0,.23,.07,.41,.22,.54,.15,.13,.35,.19,.62,.19h.56v.88h-5.33v-.88h.6c.28,0,.48-.07,.62-.22,.14-.15,.2-.37,.2-.68v-10.34c0-.32-.09-.57-.26-.74-.18-.17-.42-.26-.72-.26h-.66v-.86Z" fill="#231f20"></path><path d="M43.81,48.01h6.47v.88h-.95c-.27,0-.47,.06-.61,.18-.13,.12-.2,.28-.2,.48v4.58h5.33v-4.35c0-.33-.07-.57-.21-.7-.14-.13-.38-.2-.71-.2h-.81v-.88h6.48v.88h-.87c-.34,0-.57,.06-.71,.19-.14,.13-.21,.32-.21,.58v10.55c0,.31,.07,.54,.21,.68,.14,.14,.34,.21,.6,.21h.97v.88h-6.48v-.88h.98c.27,0,.46-.06,.58-.18,.12-.12,.18-.32,.18-.61v-5.03h-5.33v5.03c0,.27,.06,.47,.17,.6,.11,.13,.27,.19,.46,.19h1.13v.88h-6.47v-.88h1.04c.24,0,.42-.06,.53-.18,.11-.12,.16-.32,.16-.6v-10.54c0-.33-.07-.56-.22-.69-.15-.14-.38-.2-.7-.2h-.81v-.88Z" fill="#231f20"></path><path d="M68.13,57.62h-6.2c.02,1.24,.27,2.16,.75,2.74,.48,.59,1.1,.88,1.85,.88,.54,0,1.05-.15,1.54-.45,.48-.3,.98-.85,1.49-1.64l.69,.42c-.54,.94-1.15,1.62-1.84,2.03-.69,.41-1.53,.61-2.53,.61-1.45,0-2.62-.44-3.52-1.32-.9-.88-1.34-2.01-1.34-3.39s.45-2.53,1.35-3.46c.9-.93,2.01-1.39,3.32-1.39,.91,0,1.69,.19,2.34,.56,.65,.37,1.16,.92,1.52,1.63,.36,.72,.55,1.64,.57,2.78m-6.2-.86h2.95c.28,0,.47-.07,.59-.21,.12-.14,.18-.39,.18-.76,0-.73-.17-1.3-.5-1.7-.33-.4-.76-.6-1.27-.6-.61,0-1.08,.27-1.4,.81-.32,.54-.51,1.36-.55,2.45" fill="#231f20"></path><path d="M78.72,60.89l.4,.68c-.38,.26-.73,.45-1.04,.55-.31,.1-.64,.15-1.01,.15-.54,0-.98-.12-1.31-.35-.33-.23-.64-.66-.92-1.3-.64,.64-1.22,1.07-1.73,1.3-.51,.23-1.09,.35-1.73,.35-.89,0-1.58-.21-2.08-.61-.5-.41-.74-.93-.74-1.56,0-.95,.46-1.71,1.38-2.29,.74-.45,2.35-.91,4.85-1.36v-1.28c0-.5-.17-.92-.5-1.23-.34-.32-.78-.48-1.34-.48-.43,0-.81,.09-1.13,.27-.22,.12-.33,.24-.33,.36,0,.06,.04,.16,.12,.28,.18,.28,.26,.56,.26,.84,0,.35-.12,.64-.35,.85s-.54,.33-.94,.33c-.42,0-.75-.12-1-.35-.25-.24-.38-.54-.38-.91,0-.61,.33-1.15,.99-1.62,.82-.58,1.85-.87,3.08-.87,.93,0,1.75,.15,2.47,.44,.46,.18,.83,.5,1.12,.96,.29,.46,.43,1.02,.43,1.69v4.49c0,.34,.06,.59,.19,.74,.13,.15,.3,.23,.52,.23,.18,0,.42-.1,.72-.29m-3.93-3.62c-1.35,.18-2.26,.46-2.73,.84-.48,.38-.71,.88-.71,1.51,0,.44,.11,.78,.34,1.02,.22,.24,.54,.35,.94,.35,.63,0,1.14-.22,1.55-.67,.41-.45,.62-1.06,.62-1.83v-1.22Z" fill="#231f20"></path><path d="M79.66,48.01l4.15-.21v12.58c0,.23,.07,.41,.22,.54,.15,.13,.35,.19,.62,.19h.56v.88h-5.33v-.88h.6c.28,0,.48-.07,.62-.22,.14-.15,.2-.37,.2-.68v-10.34c0-.32-.09-.57-.26-.74-.18-.17-.42-.26-.72-.26h-.66v-.86Z" fill="#231f20"></path><path d="M87.9,49.51h.84v3.64h2.92v1.02h-2.92v5.62c0,.37,.09,.66,.28,.86,.19,.21,.44,.31,.75,.31,.89,0,1.35-.82,1.41-2.47h.84c-.02,.88-.16,1.58-.42,2.11-.26,.53-.63,.94-1.11,1.23-.48,.29-1.03,.44-1.63,.44-.53,0-.99-.11-1.38-.32-.39-.21-.7-.53-.93-.96s-.35-.89-.35-1.38v-5.44h-1.57v-.87c.96-.13,1.71-.49,2.25-1.11,.54-.61,.87-1.51,1-2.68" fill="#231f20"></path><path d="M92.01,48.01l4.18-.21v6.88c.64-.78,1.22-1.32,1.76-1.6,.54-.29,1.12-.43,1.76-.43,.88,0,1.56,.27,2.02,.8,.53,.62,.79,1.49,.79,2.62v4.2c0,.29,.06,.5,.2,.64,.13,.14,.32,.2,.57,.2h.61v.88h-5.33v-.88h.58c.32,0,.54-.06,.65-.18,.16-.16,.24-.38,.24-.66v-4.12c0-.59-.16-1.06-.48-1.41-.32-.35-.72-.52-1.2-.52-.59,0-1.1,.25-1.53,.75-.43,.5-.64,1.17-.64,2.03v3.28c0,.28,.07,.5,.2,.63,.14,.14,.33,.21,.58,.21h.64v.88h-5.5v-.88h.76c.27,0,.48-.07,.61-.22,.14-.15,.21-.35,.21-.63v-10.4c0-.3-.1-.54-.29-.71-.19-.17-.45-.26-.77-.26h-.63v-.88Z" fill="#231f20"></path><path d="M116.67,49.07l.65-1.39h.7l.24,5.6h-.87c-.27-1.61-.78-2.81-1.53-3.59-.75-.78-1.61-1.17-2.57-1.17-1.06,0-1.93,.5-2.63,1.51-.69,1.01-1.04,2.6-1.04,4.77,0,2.3,.38,4.01,1.14,5.12,.61,.87,1.51,1.31,2.7,1.31s2.19-.44,3.01-1.31c.59-.64,.99-1.57,1.23-2.82h.85c-.2,1.59-.81,2.85-1.82,3.78-1.02,.93-2.26,1.39-3.74,1.39-1.92,0-3.52-.68-4.81-2.03-1.29-1.35-1.94-3.08-1.94-5.19,0-2.34,.75-4.21,2.24-5.61,1.27-1.19,2.76-1.78,4.47-1.78,.67,0,1.3,.11,1.88,.32,.58,.21,1.2,.58,1.86,1.09" fill="#231f20"></path><path d="M128.29,57.62h-6.2c.02,1.24,.27,2.16,.75,2.74,.48,.59,1.1,.88,1.85,.88,.54,0,1.05-.15,1.54-.45,.49-.3,.98-.85,1.49-1.64l.69,.42c-.54,.94-1.15,1.62-1.84,2.03-.69,.41-1.53,.61-2.53,.61-1.45,0-2.62-.44-3.52-1.32-.9-.88-1.34-2.01-1.34-3.39s.45-2.53,1.35-3.46c.9-.93,2.01-1.39,3.32-1.39,.91,0,1.69,.19,2.34,.56,.65,.37,1.16,.92,1.52,1.63,.36,.72,.55,1.64,.57,2.78m-6.2-.86h2.95c.28,0,.47-.07,.59-.21,.12-.14,.18-.39,.18-.76,0-.73-.17-1.3-.5-1.7-.33-.4-.76-.6-1.27-.6-.61,0-1.07,.27-1.4,.81-.32,.54-.51,1.36-.55,2.45" fill="#231f20"></path><path d="M140.69,61.11v.88h-5.32v-.88h.56c.3,0,.52-.08,.66-.23s.22-.37,.22-.66v-3.84c0-.65-.15-1.16-.45-1.51-.3-.35-.69-.52-1.17-.52-.66,0-1.19,.25-1.61,.74-.41,.49-.62,1.22-.62,2.17v2.96c0,.29,.07,.51,.22,.66,.15,.15,.34,.23,.57,.23h.67v.88h-5.53v-.88h.72c.28,0,.49-.08,.63-.23,.14-.15,.21-.37,.21-.66v-5.26c0-.3-.1-.54-.31-.72-.2-.18-.47-.27-.81-.27h-.38v-.82l3.7-.2c.13,.54,.23,1.19,.3,1.94,.52-.7,1.06-1.22,1.65-1.57,.58-.35,1.2-.52,1.85-.52,.88,0,1.57,.29,2.08,.88,.5,.59,.75,1.4,.75,2.45v4.1c0,.32,.07,.54,.22,.68,.15,.14,.38,.21,.69,.21h.49Z" fill="#231f20"></path><path d="M143.54,49.51h.84v3.64h2.92v1.02h-2.92v5.62c0,.37,.09,.66,.28,.86,.19,.21,.44,.31,.75,.31,.89,0,1.35-.82,1.41-2.47h.84c-.02,.88-.16,1.58-.42,2.11-.26,.53-.63,.94-1.11,1.23-.48,.29-1.03,.44-1.63,.44-.53,0-.99-.11-1.38-.32-.39-.21-.7-.53-.93-.96-.23-.43-.35-.89-.35-1.38v-5.44h-1.57v-.87c.96-.13,1.71-.49,2.25-1.11,.54-.61,.87-1.51,1-2.68" fill="#231f20"></path><path d="M156.84,57.62h-6.2c.02,1.24,.27,2.16,.75,2.74,.48,.59,1.1,.88,1.85,.88,.54,0,1.05-.15,1.54-.45,.49-.3,.98-.85,1.49-1.64l.69,.42c-.54,.94-1.15,1.62-1.84,2.03-.69,.41-1.53,.61-2.53,.61-1.45,0-2.62-.44-3.52-1.32-.9-.88-1.34-2.01-1.34-3.39s.45-2.53,1.35-3.46c.9-.93,2.01-1.39,3.32-1.39,.91,0,1.69,.19,2.34,.56,.65,.37,1.16,.92,1.52,1.63,.36,.72,.55,1.64,.57,2.78m-6.2-.86h2.95c.28,0,.47-.07,.59-.21,.12-.14,.18-.39,.18-.76,0-.73-.17-1.3-.5-1.7-.33-.4-.76-.6-1.27-.6-.61,0-1.08,.27-1.4,.81-.32,.54-.51,1.36-.55,2.45" fill="#231f20"></path><path d="M163.51,61.11v.88h-6.18v-.88h.76c.32,0,.54-.06,.69-.18,.15-.12,.22-.29,.22-.5v-5.23c0-.42-.1-.73-.29-.93-.19-.19-.46-.29-.81-.29h-.5v-.83l3.78-.2v2.88c.22-.96,.61-1.7,1.15-2.22,.55-.52,1.17-.77,1.85-.77,.59,0,1.05,.15,1.39,.47,.34,.31,.51,.71,.51,1.21,0,.42-.12,.76-.35,1.03-.24,.26-.52,.39-.86,.39-.3,0-.56-.11-.78-.34-.22-.23-.33-.52-.33-.87,0-.2,.05-.4,.15-.61,.05-.12,.08-.21,.08-.26,0-.09-.02-.15-.06-.19-.04-.04-.11-.06-.19-.06-.23,0-.47,.13-.74,.4-.42,.41-.76,1.05-1.05,1.91-.28,.87-.42,1.74-.42,2.62v1.91c0,.22,.06,.39,.18,.51,.12,.12,.29,.17,.5,.17h1.29Z" fill="#231f20"></path><polygon points="31.45 10.82 32.21 10.06 32.21 29.07 31.53 29.75 31.45 10.82" fill="#231f20"></polygon><polygon points="31.45 32.3 32.21 31.45 42.31 31.45 41.55 32.3 31.45 32.3" fill="#231f20"></polygon><polygon points="29.66 12.69 26.44 15.83 26.44 26.27 16.08 26.27 12.61 29.75 29.66 29.75 29.66 12.69" fill="#231f20"></polygon><polygon points="9.97 32.3 10.82 31.45 27.37 31.45 26.35 32.3 9.97 32.3" fill="#231f20"></polygon><polygon points="44.35 34.08 29.07 34.08 29.07 63.19 32.21 56.23 32.21 37.06 41.29 37.06 44.35 34.08" fill="#231f20"></polygon><polygon points="27.37 34.08 26.27 34.88 26.27 63.19 27.37 63.19 27.37 34.08" fill="#231f20"></polygon><polygon points="33.99 27.12 36.71 24.74 36.37 0 22.11 14.13 22.11 22.2 14.3 22.2 0 36.46 22.28 36.46 22.28 67.43 31.83 67.43 34.16 62.09 39.68 74.13 42.78 67.52 166.09 67.52 166.09 64.97 41.29 64.97 39.76 68.18 34.16 56.23 30.17 65.14 24.74 65.14 24.74 34.08 5.81 34.08 15.15 24.66 24.66 24.66 24.66 15.24 34.08 5.81 33.99 27.12" fill="#231f20"></polygon></svg> 