<?xml version="1.0" encoding="UTF-8"?> <svg xmlns="http://www.w3.org/2000/svg" id="a" width="162.39" height="28.27" viewBox="0 0 162.39 28.27"><g id="b"><path id="c" d="M36.61,12.72v-3.24c.02-.41-.27-.76-.67-.82-.2-.05-.41-.06-.62-.05-.15,0-.26-.05-.26-.15s.1-.15,.36-.15c.82,0,1.85,.05,2.27,.05,.67,0,1.9-.05,2.63-.05,2.01,0,2.73,.67,2.93,.88,.5,.49,.77,1.16,.77,1.85,0,2.16-1.75,3.71-3.96,3.71h-.46c-.1,0-.21-.05-.21-.15s.21-.21,.51-.21c1.24-.15,2.16-1.22,2.11-2.47,.05-.86-.29-1.69-.93-2.27-.65-.48-1.47-.67-2.27-.51-.1,.05-.1,.1-.1,.31v6.08c0,1.39,0,2.63,.05,3.3,.05,.41,.15,.72,.62,.77,.27,.04,.55,.06,.82,.05,.21,0,.26,.1,.26,.15,0,.1-.1,.15-.31,.15-1.08,0-2.16-.05-2.57-.05-.36,0-1.39,.05-2.01,.05-.21,0-.31-.05-.31-.15,0-.05,.05-.15,.26-.15,.19,.01,.38,0,.57-.05,.31-.05,.41-.36,.46-.82,.05-.67,.05-1.85,.05-3.24v-2.78h0Z"></path><path id="d" d="M45.67,14.21v-2.57c0-.32-.21-.6-.51-.67-.15-.05-.31-.06-.46-.05-.1,0-.21-.05-.21-.1,0-.1,.1-.1,.26-.1,.62,0,1.39,.05,1.65,.05,.41,0,1.49-.05,1.85-.05,.79-.07,1.58,.11,2.27,.51,.51,.4,.81,1,.82,1.65,0,.88-.51,1.7-1.65,2.68,.82,1.11,1.69,2.18,2.63,3.19,.67,.72,1.08,.77,1.29,.77,.1,.04,.2,.06,.31,.05,.1,0,.15,.05,.15,.1,0,.1-.1,.1-.26,.1h-1.13c-.45,.05-.9-.04-1.29-.26-.51-.26-.98-.82-1.65-1.8-.46-.67-.98-1.44-1.13-1.65-.06-.05-.13-.09-.21-.1l-1.08-.05c-.06,0-.1,.05-.1,.1v.15c0,1.13,0,2.06,.05,2.57,.05,.36,.1,.57,.46,.62,.19,.04,.38,.06,.57,.05,.1,0,.15,.05,.15,.1,0,.1-.1,.1-.26,.1-.72,0-1.7-.05-1.85-.05-.26,0-.98,.05-1.49,.05-.15,0-.26-.05-.26-.1s.05-.1,.21-.1c.14,.01,.28,0,.41-.05,.26-.05,.31-.31,.36-.62,.05-.51,.05-1.44,.05-2.57v-1.96h.05Zm1.49,.93c0,.08,.04,.16,.1,.21,.3,.09,.61,.12,.93,.1,.29,.04,.59-.03,.82-.21,.55-.43,.84-1.11,.77-1.8,0-1.7-1.13-2.16-1.85-2.16-.24-.01-.48,0-.72,.05q-.1,.05-.1,.15v3.66h.05Z"></path><path id="e" d="M53.13,15.29c0-2.06,1.44-4.74,5.25-4.74,3.14,0,5.1,1.75,5.1,4.53s-2.01,4.94-5.25,4.94c-3.66,0-5.1-2.63-5.1-4.74Zm8.5,.21c0-2.68-1.6-4.32-3.6-4.32-1.39,0-3.04,.72-3.04,3.71,0,2.47,1.44,4.43,3.76,4.43,.88,.05,2.88-.36,2.88-3.81Z"></path><path id="f" d="M73.88,13.28c.05,0,.1,0,.1-.1v-.31c0-2.32,0-2.88-.05-3.35,.02-.41-.27-.76-.67-.82-.2-.05-.41-.06-.62-.05-.21,0-.26-.05-.26-.15s.1-.15,.36-.15c.82,0,1.96,.05,2.37,.05,.36,0,1.44-.05,2.06-.05,.26,0,.36,.05,.36,.15s-.1,.15-.31,.15c-.16,0-.31,.01-.46,.05-.41,.05-.57,.31-.57,.82-.05,.46-.05,.93-.05,3.24v2.73c0,1.39,0,2.63,.05,3.3,.05,.41,.15,.72,.62,.77,.27,.04,.55,.06,.82,.05,.15,0,.26,.1,.26,.15,0,.1-.1,.15-.31,.15-1.03,0-2.06-.05-2.52-.05-.36,0-1.49,.05-2.11,.05-.21,0-.36-.05-.36-.15,0-.05,.05-.15,.26-.15,.19,.01,.38,0,.57-.05,.31-.05,.41-.36,.46-.82,.05-.67,.05-1.8,.05-3.24v-1.18c0-.06-.05-.1-.1-.1h-5.97c-.05,0-.1,0-.1,.1v1.13c-.03,1.08,0,2.17,.1,3.24,.05,.41,.15,.72,.62,.77,.27,.04,.55,.06,.82,.05,.21,0,.26,.1,.26,.15,0,.1-.1,.15-.31,.15-1.03,0-2.11-.05-2.57-.05-.36,0-1.39,.05-2.06,.05-.21,0-.31-.05-.31-.15,0-.05,.05-.15,.26-.15,.19,.01,.38,0,.57-.05,.31-.05,.41-.36,.46-.82,.05-.67,.05-1.85,.05-3.24v-5.97c.02-.41-.27-.76-.67-.82-.2-.05-.41-.06-.62-.05-.15,0-.26-.05-.26-.15s.1-.15,.36-.15c.82,0,1.9,.05,2.32,.05,.36,0,1.49-.05,2.11-.05,.21,0,.31,.05,.31,.15s-.1,.15-.31,.15c-.16,0-.31,.01-.46,.05-.41,.05-.57,.31-.62,.82-.05,.46-.05,1.03-.05,3.35v.31c0,.1,.05,.1,.1,.1h6.02v.1Z"></path><path id="g" d="M79.55,14.21v-2.57c0-.32-.21-.6-.51-.67-.15-.05-.31-.06-.46-.05-.1,0-.21-.05-.21-.1,0-.1,.1-.1,.26-.1,.62,0,1.39,.05,1.7,.05h3.24c.21,0,.41-.05,.51-.05,.05,0,.15-.05,.21-.05,.06,0,.1,.05,.1,.1,0,.1-.05,.21-.1,.77,0,.1-.05,.67-.05,.77,0,.05-.05,.21-.15,.21s-.1-.05-.1-.15c.01-.16-.03-.32-.1-.46-.1-.21-.21-.36-.77-.46-.21-.05-1.65-.05-1.85-.05-.06,0-.1,.05-.1,.1v2.99c0,.05,0,.1,.1,.1,.26,0,1.8,0,2.06-.05,.31-.05,.46-.05,.57-.21,.1-.1,.15-.15,.21-.15,.06,0,.1,.05,.1,.1,0,.05-.05,.26-.1,.88-.04,.27-.06,.55-.05,.82,0,.1,0,.26-.1,.26s-.1-.05-.1-.1c0-.16-.01-.31-.05-.46-.05-.26-.21-.41-.67-.46-.21-.05-1.54-.05-1.85-.05-.05,0-.05,.05-.05,.1v2.78c.05,.82,.41,1.03,1.6,1.03,.38,.02,.77-.03,1.13-.15,.31-.15,.41-.41,.51-.88,.05-.1,.05-.21,.15-.21s.1,.15,.1,.31c-.03,.45-.08,.9-.15,1.34-.1,.31-.21,.31-.62,.31-.88,0-1.6,0-2.21-.05-.57,0-1.03-.05-1.39-.05h-.67c-.31,0-.57,.05-.82,.05-.15,0-.21-.05-.21-.1s.05-.1,.21-.1c.14,.01,.28,0,.41-.05,.26-.05,.31-.31,.36-.62,.05-.51,.05-1.44,.05-2.57v-2.06h-.1Z"></path><path id="h" d="M87.89,16.78c-.05,0-.1,0-.1,.1l-.62,1.65c-.08,.23-.13,.48-.15,.72,0,.21,.1,.36,.46,.36h.15c.15,0,.15,.05,.15,.1,0,.1-.05,.1-.21,.1-.41,0-.98-.05-1.34-.05-.1,0-.77,.05-1.39,.05-.15,0-.21-.05-.21-.1s.05-.1,.15-.1h.36c.57-.1,.77-.46,.98-1.08l3.14-7.57c.15-.36,.26-.46,.36-.46,.15,0,.26,.1,.36,.36,.31,.67,2.32,5.56,3.04,7.41,.46,1.08,.82,1.24,1.03,1.29,.15,.04,.31,.06,.46,.05,.1,0,.15,.05,.15,.1,0,.1-.05,.1-.51,.1-.41,0-1.29,0-2.32-.05-.21,0-.36,0-.36-.1,0-.05,.05-.1,.15-.1s.15-.1,.1-.26l-.93-2.47c-.05-.05-.05-.1-.1-.1h-2.83v.05Zm2.57-.67s.05-.02,.05-.05h0s-1.13-3.04-1.13-3.04c0-.04-.02-.08-.05-.1-.05,0-.05,.05-.05,.1l-1.18,3.04c-.05,.05,0,.1,.05,.1h2.32v-.05Z"></path><path id="i" d="M97.36,16.32c0,1.54,0,2.32,.26,2.52,.21,.21,.67,.26,1.6,.26,.62,0,1.08,0,1.39-.36,.15-.21,.26-.46,.31-.72,0-.1,.05-.21,.15-.21s.1,.1,.1,.26-.1,1.03-.15,1.39c-.1,.26-.15,.31-.77,.31-.88,0-1.54,0-2.16-.05-.62,0-1.13-.05-1.6-.05h-.67c-.31,0-.57,.05-.82,.05-.15,0-.26-.05-.26-.1s.05-.1,.21-.1c.14,.01,.28,0,.41-.05,.26-.05,.31-.31,.36-.62,.05-.51,.05-1.44,.05-2.57v-4.69c0-.32-.21-.6-.51-.67-.13-.05-.27-.06-.41-.05-.15,0-.21-.05-.21-.1,0-.1,.1-.1,.26-.1,.57,0,1.34,.05,1.65,.05s1.29-.05,1.75-.05c.15,0,.26,.05,.26,.1,0,.1-.05,.1-.21,.1-.16,0-.31,0-.46,.05-.31,.05-.41,.21-.46,.67-.07,.86-.08,1.72-.05,2.57v2.16Z"></path><path id="j" d="M104.21,11.43l-1.8,.05c-.72,0-.98,.1-1.18,.36-.08,.13-.15,.27-.21,.41-.05,.1-.05,.15-.15,.15s-.1-.05-.1-.21c0-.21,.26-1.39,.26-1.44,.05-.15,.05-.21,.15-.21s.21,.1,.51,.15c.39,.04,.79,.06,1.18,.05h4.89c.36,0,.62-.05,.82-.05,.1-.03,.2-.05,.31-.05,.1,0,.1,.05,.1,.26,0,.26-.05,1.13-.05,1.44,0,.1-.05,.21-.1,.21-.1,0-.1-.05-.15-.26v-.1c-.05-.31-.36-.67-1.44-.72l-1.49-.05v4.89c0,1.13,0,2.06,.05,2.57,.05,.36,.1,.57,.46,.62,.2,.04,.41,.06,.62,.05,.15,0,.21,.05,.21,.1,0,.1-.1,.1-.26,.1-.77,0-1.6-.05-1.96-.05-.26,0-1.08,.05-1.54,.05-.15,0-.26-.05-.26-.1s.05-.1,.21-.1c.14,.01,.28,0,.41-.05,.26-.05,.31-.31,.36-.62,.05-.51,.05-1.44,.05-2.57v-4.89h.1Z"></path><path id="k" d="M117.54,14.67q.05,0,.05-.1v-.26c.03-.89,.01-1.79-.05-2.68-.05-.41-.15-.51-.57-.67-.15-.05-.31-.06-.46-.05-.15,0-.21-.05-.21-.1,0-.1,.1-.1,.26-.1,.67,0,1.54,.05,1.85,.05s1.13-.05,1.6-.05c.21,0,.26,.05,.26,.1,0,.1-.1,.1-.21,.1-.12,0-.24,.01-.36,.05-.31,.05-.41,.21-.46,.67-.07,.86-.08,1.72-.05,2.57v2.11c0,1.13,0,2.06,.05,2.57,.05,.36,.1,.57,.51,.62,.2,.04,.41,.06,.62,.05,.1,0,.21,.05,.21,.1,0,.1-.1,.1-.26,.1-.82,0-1.65-.05-1.96-.05s-1.18,.05-1.65,.05c-.15,0-.26-.05-.26-.1s.05-.1,.21-.1c.16,.01,.31,0,.46-.05,.26-.05,.31-.31,.36-.62,.05-.51,.05-1.44,.05-2.52v-.93s-.02-.05-.05-.05h-4.74c-.05,0-.1,0-.1,.05v.93c0,1.13,0,2.06,.05,2.57,.05,.36,.1,.57,.46,.62,.2,.04,.41,.06,.62,.05,.15,0,.21,.05,.21,.1,0,.1-.1,.1-.26,.1-.82,0-1.7-.05-2.06-.05-.31,0-1.13,.05-1.6,.05-.15,0-.26-.05-.26-.1s.05-.1,.21-.1c.16,.01,.31,0,.46-.05,.26-.05,.31-.31,.36-.62,.05-.51,.05-1.44,.05-2.57v-4.69c-.05-.41-.15-.51-.57-.67-.17-.05-.34-.07-.51-.05-.1,0-.21-.05-.21-.1,0-.1,.1-.1,.26-.1,.67,0,1.49,.05,1.85,.05,.31,0,1.18-.05,1.65-.05,.15,0,.26,.05,.26,.1,0,.1-.05,.1-.21,.1-.12,0-.24,.01-.36,.05-.36,.05-.46,.21-.46,.67-.07,.89-.08,1.78-.05,2.68v.26c0,.06,.05,.1,.1,.1h4.89v-.05Z"></path><path id="l" d="M128.2,18.43c-1.33-1.1-2.07-2.76-2.01-4.48,.01-1.6,.71-3.11,1.9-4.17,1.13-1.03,2.68-1.6,5.1-1.6,.78,0,1.55,.04,2.32,.15,.62,.05,1.13,.21,1.6,.26,.13-.01,.24,.08,.26,.21,0,.1-.05,.31-.1,.82s0,1.34-.05,1.65c0,.21-.05,.36-.21,.36s-.15-.1-.15-.31c0-.53-.23-1.03-.62-1.39-.51-.51-1.8-.93-3.24-.93-1.09-.06-2.17,.27-3.04,.93-1.18,1.03-1.49,2.47-1.49,3.96-.08,2.88,2.17,5.29,5.05,5.41,1.44,0,2.32-.15,2.93-.88,.25-.31,.44-.66,.57-1.03,.05-.26,.1-.31,.21-.31s.15,.1,.15,.21c-.07,.68-.19,1.35-.36,2.01-.1,.26-.15,.36-.41,.46-.94,.27-1.91,.39-2.88,.36-2.16-.05-4.02-.51-5.51-1.7Z"></path><path id="m" d="M140.3,16.78c-.05,0-.1,0-.1,.1l-.62,1.65c-.08,.23-.13,.48-.15,.72,0,.21,.1,.36,.46,.36h.15c.15,0,.15,.05,.15,.1,0,.1-.05,.1-.21,.1-.36,0-.93-.05-1.29-.05-.1,0-.72,.05-1.34,.05-.15,0-.21-.05-.21-.1s.05-.1,.15-.1h.36c.51-.1,.72-.46,.98-1.08l3.04-7.57c.15-.36,.21-.46,.36-.46s.21,.1,.36,.36c.26,.67,2.21,5.56,2.99,7.41,.46,1.08,.77,1.24,.98,1.29,.13,.04,.27,.06,.41,.05,.1,0,.15,.05,.15,.1,0,.1-.05,.1-.51,.1-.41,0-1.24,0-2.21-.05-.21,0-.36,0-.36-.1,0-.05,.05-.1,.15-.1s.15-.1,.1-.26l-.88-2.47c-.05-.05-.05-.1-.1-.1h-2.83v.05Zm2.47-.67s.05-.02,.05-.05h0s-1.08-3.04-1.08-3.04c0-.04-.02-.08-.05-.1-.05,0-.05,.05-.05,.1l-1.13,3.04c-.05,.05,0,.1,.05,.1h2.21v-.05Z"></path><path id="n" d="M148.18,14.21v-2.57c0-.32-.21-.6-.51-.67-.15-.05-.31-.06-.46-.05-.1,0-.21-.05-.21-.1,0-.1,.1-.1,.26-.1,.62,0,1.34,.05,1.6,.05,.41,0,1.44-.05,1.8-.05,.77-.06,1.55,.12,2.21,.51,.49,.41,.79,1.01,.82,1.65,0,.88-.46,1.7-1.6,2.68,.79,1.12,1.65,2.19,2.57,3.19,.67,.72,1.08,.77,1.24,.77,.08,.04,.17,.05,.26,.05,.1,0,.15,.05,.15,.1,0,.1-.1,.1-.21,.1h-1.13c-.45,.05-.9-.04-1.29-.26-.51-.26-.93-.82-1.6-1.8-.46-.67-.98-1.44-1.08-1.65-.06-.05-.13-.09-.21-.1l-1.03-.05c-.06,0-.1,.05-.1,.1v.15c0,1.13,0,2.06,.05,2.57,.05,.36,.1,.57,.46,.62,.19,.04,.38,.06,.57,.05,.1,0,.15,.05,.15,.1,0,.1-.1,.1-.26,.1-.67,0-1.65-.05-1.8-.05-.21,0-.98,.05-1.44,.05-.15,0-.21-.05-.21-.1s.05-.1,.21-.1c.14,.01,.28,0,.41-.05,.26-.05,.31-.31,.36-.62,.05-.51,.05-1.44,.05-2.57v-1.96h-.05Zm1.44,.93c0,.08,.04,.16,.1,.21,.28,.08,.58,.12,.88,.1,.29,.04,.59-.03,.82-.21,.55-.43,.84-1.11,.77-1.8,0-1.7-1.08-2.16-1.75-2.16-.22-.02-.45,0-.67,.05q-.1,.05-.1,.15v3.66h-.05Z"></path><path id="o" d="M157.24,14.21v-2.57c0-.32-.21-.6-.51-.67-.15-.05-.31-.06-.46-.05-.1,0-.21-.05-.21-.1,0-.1,.1-.1,.26-.1,.62,0,1.34,.05,1.7,.05h3.19c.21,0,.41-.05,.51-.05,.05,0,.15-.05,.21-.05,.06,0,.1,.05,.1,.1,0,.1-.05,.21-.1,.77,0,.1-.05,.67-.05,.77,0,.05-.05,.21-.15,.21s-.1-.05-.1-.15c.01-.16-.03-.32-.1-.46-.1-.21-.21-.36-.77-.46-.21-.05-1.6-.05-1.8-.05-.06,0-.1,.05-.1,.1v2.99c0,.05,0,.1,.1,.1,.26,0,1.75,0,2.06-.05,.26-.05,.41-.05,.57-.21,.1-.1,.15-.15,.21-.15,.06,0,.1,.05,.1,.1,0,.05-.05,.26-.1,.88-.04,.27-.06,.55-.05,.82,0,.1,0,.26-.1,.26s-.1-.05-.1-.1c0-.16-.01-.31-.05-.46-.05-.26-.21-.41-.67-.46-.21-.05-1.54-.05-1.8-.05-.05,0-.05,.05-.05,.1v2.78c.05,.82,.36,1.03,1.6,1.03,.37,.02,.74-.03,1.08-.15,.31-.15,.41-.41,.51-.88,.05-.1,.05-.21,.15-.21s.1,.15,.1,.31c-.03,.45-.08,.9-.15,1.34-.1,.31-.21,.31-.62,.31-.88,0-1.6,0-2.16-.05-.57,0-1.03-.05-1.34-.05h-.67c-.26,0-.57,.05-.82,.05-.15,0-.21-.05-.21-.1s.05-.1,.21-.1c.14,.01,.28,0,.41-.05,.26-.05,.31-.31,.36-.62,.05-.51,.05-1.44,.05-2.57v-2.06h-.21Z"></path></g><path id="p" d="M14.16,0C6.35-.01,.01,6.3,0,14.11c-.01,7.81,6.3,14.14,14.11,14.16,7.81,.01,14.14-6.3,14.16-14.11C28.28,6.35,21.96,.02,14.16,0Zm7.83,3.5l-1.65,5.77,7.26,.88-7.67,.88,5.46,1.03-6.33,.62-8.08,15.14,5.61-14.83-6.08,10.71,3.81-10.97L.31,12l14.67-1.03-11.53-.88,12.46-.82L20.65,1.7" fill="#231f20"></path></svg> 