<?xml version="1.0" encoding="UTF-8"?> <svg xmlns="http://www.w3.org/2000/svg" id="a" width="238.6" height="63.41" viewBox="0 0 238.6 63.41"><g id="b"><path id="c" d="M79.38,7.07c-.07-2.2,.51-2.94-3.23-2.94v-1.51c1.73,.04,3.82,.04,5.91,.07,2.09-.04,4.19-.04,5.91-.07v1.51c-3.56,0-3.23,.62-3.23,2.94v13.08c-.11,4.37,1.47,6.8,6.17,6.8s7.27-2.46,7.27-7.05V7.07c0-2.72-.22-2.94-3.71-2.94v-1.51c1.54,.04,3.05,.04,4.59,.07,1.51-.04,2.98-.04,4.48-.07v1.51c-3.31,0-3.31,.48-3.31,2.94v13.04c0,6.14-4.15,8.3-9.85,8.3-6.87,0-11.02-1.1-11.02-8.56V7.07Z" fill="#231f20"></path><path id="d" d="M109.17,12.94c2.06-1.43,3.16-2.53,5.95-2.53,3.97,0,5.18,2.02,5.18,5.66v7.57c0,2.2-.4,3.05,2.61,3.05v1.43c-1.69-.04-3.38-.04-5.07-.07-1.69,.04-3.38,.04-4.59,.07v-1.44c2.5,0,2.13-1.1,2.13-3.05v-6.98c0-2.09-.44-3.64-2.86-3.64s-3.16,2.09-3.16,4.15v6.47c0,1.95-.37,3.05,2.13,3.05v1.43c-1.21-.04-2.9-.04-4.59-.07-1.69,.04-3.38,.04-5.03,.07v-1.43c2.98,0,2.57-.85,2.57-3.05V15.18c0-2.2,.4-3.05-2.57-3.05v-1.43c1.21,.04,2.46,.04,3.67,.07,1.21-.04,2.42-.04,3.64-.07v2.24Z" fill="#231f20"></path><path id="e" d="M130.12,23.67c0,2.17-.4,3.01,2.61,3.01v1.43c-1.69-.04-3.38-.04-5.07-.07-1.69,.04-3.38,.04-5.07,.07v-1.43c3.01,0,2.61-.85,2.61-3.01V14.74c0-1.69,.33-2.53-2.61-2.53v-1.43h7.53v12.9Zm-4.89-19.14c0-1.65,.81-2.83,2.53-2.83s2.54,1.18,2.54,2.83-.81,2.79-2.54,2.79-2.53-1.14-2.53-2.79Z" fill="#231f20"></path><path id="f" d="M151.12,12.02c-1.91,0-2.53,.92-3.09,2.42l-5.11,13.66c-.59-.04-1.14-.04-1.73-.07-.59,.04-1.14,.04-1.73,.07l-5.07-13.67c-.48-1.69-.99-2.28-2.86-2.42v-1.32c1.69,.04,3.38,.04,5.07,.07,1.69-.04,3.34-.04,5.03-.07v1.32c-1.32,.11-1.95,.4-2.17,1.21-.07,.29-.04,.55,.22,1.25l3.34,9.22,2.76-9.7c.11-.33,.18-.68,.22-1.03-.11-.66-.88-.96-2.13-.96v-1.32c1.21,.04,2.42,.04,3.64,.07,1.21-.04,2.39-.04,3.6-.07v1.32Z" fill="#231f20"></path><path id="g" d="M155.41,19.81c0,2.42-.4,7.09,3.27,7.09,1.95,0,2.79-.85,3.27-2.98,.15-.59,.07-.96,.59-1.03h2.32c.51,0,.44,.59,.4,.99-.26,3.53-3.71,4.52-6.58,4.52-6.8,0-8.63-2.68-8.63-9.15s2.35-8.85,8.3-8.85c6.46,0,7.75,3.05,7.49,9.4h-10.43Zm5.51-1.68c-.07-3.45,.29-6.28-2.79-6.28-2.86,0-2.64,2.98-2.72,6.28h5.51Z" fill="#231f20"></path><path id="h" d="M173.53,12.87c.9-1.48,2.49-2.4,4.23-2.46,2.09,0,3.49,1.1,3.49,3.27,0,1.54-.07,2.17-1.84,2.17-.99,0-1.87-.11-1.91-1.32-.04-.92-.29-1.76-1.4-1.76-1.95,0-2.39,2.28-2.39,4.44v6.39c0,2.54-.37,3.09,3.01,3.09v1.43c-2.09-.04-3.78-.04-5.47-.07-1.69,.04-3.38,.04-5.03,.07v-1.44c2.98,0,2.57-.85,2.57-3.09V15.15c0-2.24,.4-3.09-2.57-3.09v-1.36c1.62,.04,3.23,.04,4.85,.07,.81-.04,1.65-.04,2.46-.07v2.17Z" fill="#231f20"></path><path id="i" d="M195.16,15.77h-2.24c-.04-2.31-.66-3.93-3.27-3.93-1.62,0-2.94,.66-2.94,2.46,0,4.44,9.26,1.25,9.26,8.56,0,3.05-2.13,5.55-7.05,5.55-2.3,0-4.59-.23-6.83-.7v-5.03h2.46l.11,1.54c.12,1.68,1.57,2.95,3.26,2.83,0,0,0,0,.01,0,2.02,0,3.42-.77,3.42-2.94,0-2.31-3.56-2.68-5.58-3.34-2.17-.7-3.67-2.2-3.67-4.59,0-4.74,3.75-5.77,7.75-5.77,1.8-.02,3.6,.24,5.33,.77v4.59Z" fill="#231f20"></path><path id="j" d="M204.39,23.67c0,2.17-.4,3.01,2.61,3.01v1.43c-1.69-.04-3.38-.04-5.07-.07-1.69,.04-3.38,.04-5.07,.07v-1.43c3.01,0,2.61-.85,2.61-3.01V14.74c0-1.69,.33-2.53-2.61-2.53v-1.43h7.53v12.9Zm-4.89-19.14c0-1.65,.81-2.83,2.53-2.83s2.54,1.18,2.54,2.83-.81,2.79-2.54,2.79-2.53-1.14-2.53-2.79Z" fill="#231f20"></path><path id="k" d="M209.29,12.47h-2.42v-1.69h2.42V5.89l4.92-1.62v6.5h3.6v1.69h-3.6v9.15c0,1.87-.26,4.92,2.39,4.92,.53,.03,1.05-.06,1.54-.26v1.4c-1.37,.44-2.79,.69-4.22,.73-3.23,0-4.63-1.21-4.63-4.56V12.47Z" fill="#231f20"></path><path id="l" d="M221.89,14.45c-.88-2.09-.7-2.13-2.87-2.42v-1.32c1.69,.04,3.38,.04,5.07,.07,1.69-.04,3.34-.04,5.03-.07v1.32l-.66,.11c-.48,.07-1.4,.22-1.54,.81-.02,.51,.07,1.03,.26,1.51l3.34,9.26,2.72-9.29c.16-.44,.28-.9,.37-1.36,.18-1.1-1.54-.96-2.24-1.03v-1.32c1.21,.04,2.43,.04,3.64,.07,1.21-.04,2.39-.04,3.6-.07v1.32c-1.07,.33-1.95-.62-3.27,3.12l-6.28,16.38c-.77,2.02-2.83,5.69-6.61,5.69-1.43,.04-2.62-1.07-2.68-2.5-.03-.99,.71-1.84,1.69-1.95,1.65-.22,1.84,1.76,3.27,1.65,1.54-.15,2.5-2.35,2.97-3.64l1.07-2.75h-1.8l-5.07-13.59Z" fill="#231f20"></path><path id="m" d="M79.6,40.06c-.07-2.24,.51-2.98-3.23-2.98v-1.51c1.73,.04,3.82,.04,5.91,.07,2.09-.03,4.19-.03,5.91-.07v1.51c-3.56,0-3.23,.62-3.23,2.98v6.8h10.1v-6.8c-.07-2.24,.51-2.98-3.23-2.98v-1.51c1.73,.04,3.82,.04,5.91,.07,2.09-.03,4.19-.03,5.91-.07v1.51c-3.56,0-3.23,.62-3.23,2.98v16.53c0,2.35-.33,2.97,3.23,2.97v1.51c-1.73-.03-3.82-.03-5.91-.07-2.09,.04-4.19,.04-5.91,.07v-1.51c3.75,0,3.16-.73,3.23-2.97v-7.94h-10.1v7.94c0,2.35-.33,2.97,3.23,2.97v1.51c-1.73-.03-3.82-.03-5.91-.07-2.09,.04-4.19,.04-5.91,.07v-1.51c3.75,0,3.16-.73,3.23-2.97v-16.53Z" fill="#231f20"></path><path id="n" d="M108.76,52.77c0,2.43-.4,7.09,3.27,7.09,1.95,0,2.79-.85,3.27-2.98,.15-.59,.07-.96,.59-1.03h2.32c.51,0,.44,.59,.4,.99-.26,3.53-3.71,4.52-6.58,4.52-6.8,0-8.63-2.68-8.63-9.15s2.35-8.85,8.3-8.85c6.46,0,7.75,3.05,7.49,9.4h-10.43Zm5.51-1.68c-.07-3.46,.29-6.28-2.79-6.28-2.87,0-2.64,2.97-2.72,6.28h5.51Z" fill="#231f20"></path><path id="o" d="M130.62,59.35c-1.95,1.29-3.31,2.02-5.62,2.02-3.27,0-4.89-1.95-4.89-5.1,0-2.94,1.58-4.7,4.55-5,.91-.1,1.83-.15,2.76-.15h3.01c0-2.2,.88-6.24-2.39-6.24-1.43,0-2.39,.55-2.5,2.9,.07,.81-.15,1.1-.73,1.1h-2.57c-.44,.07-.81-.22-.73-1.1-.29-3.3,3.27-4.41,6.54-4.41,5.33,.29,7.31,.73,7.31,5.66v7.57c0,2.9-.55,3.05,2.61,3.05v1.43c-1.21-.03-2.46-.03-3.67-.07-1.21,.04-2.46,.04-3.67,.07v-1.72Zm-.18-6.8h-1.4c-1.91,0-3.09,.37-3.6,2.43-.29,1.84-.15,4.15,2.24,4.15,1.95,0,2.76-1.32,2.76-3.19v-3.38Z" fill="#231f20"></path><path id="p" d="M146.48,56.59c0,2.2-.4,3.05,2.61,3.05v1.43c-1.69-.03-3.38-.03-5.07-.07-1.69,.04-3.38,.04-5.07,.07v-1.44c3.01,0,2.61-.84,2.61-3.05v-18.55c0-2.2,.4-3.05-2.61-3.05v-1.35h7.53v22.96Z" fill="#231f20"></path><path id="q" d="M151.56,45.42h-2.42v-1.69h2.42v-4.89l4.92-1.62v6.5h3.6v1.69h-3.6v9.15c0,1.87-.26,4.92,2.39,4.92,.53,.03,1.05-.06,1.54-.26v1.4c-1.37,.44-2.79,.69-4.23,.73-3.23,0-4.63-1.21-4.63-4.55v-11.39Z" fill="#231f20"></path><path id="r" d="M169.33,45.79h.07c1.39-1.63,3.45-2.51,5.58-2.39,4.26,0,5.18,2.02,5.18,5.84v7.35c0,2.2-.4,3.05,2.61,3.05v1.43c-1.69-.03-3.38-.03-5.07-.07-1.69,.04-3.38,.04-4.63,.07v-1.44c2.54,0,2.17-1.07,2.17-3.05v-6.76c0-2.06-.22-3.93-2.76-3.93-2.39,0-3.31,1.91-3.16,4.08v6.61c0,1.98-.37,3.05,2.17,3.05v1.43c-1.25-.03-2.94-.03-4.63-.07-1.69,.04-3.38,.04-5.07,.07v-1.43c3.01,0,2.61-.84,2.61-3.05v-18.55c0-2.2,.4-3.05-2.61-3.05v-1.35h7.53v12.15Z" fill="#231f20"></path><path id="s" d="M63.18,31.5l-.34-.34-8.96-8.95V9.06h-13.33L31.83,.34l-.34-.34-.34,.34-8.72,8.72H9.23v13.2L.34,31.15l-.34,.34,.34,.34,8.89,8.89v13.42h13.05l8.93,8.93,.34,.34,.34-.34,8.93-8.93h13.06v-13.35l8.96-8.95,.34-.34Zm-31.63,12.43l-.34,.34-8.2,8.2v-12.11H10.61l8.53-8.53,.34-.34-.34-.34-8.31-8.31h12.17V11l8.15,8.15,.34,.34,.34-.34,8.27-8.28v11.97h12.24l-8.31,8.32-.34,.34,.34,.34,8.52,8.52h-12.45v12.13l-8.22-8.22-.34-.34Z" fill="#231f20"></path></g></svg> 